<?xml version="1.0" encoding="utf-8"?>
<!-- Generator: Adobe Illustrator 24.3.1, SVG Export Plug-In . SVG Version: 6.00 Build 0)  -->
<svg version="1.1" id="Layer_1" xmlns="http://www.w3.org/2000/svg" xmlns:xlink="http://www.w3.org/1999/xlink" x="0px" y="0px"
	 viewBox="0 0 50 78" style="enable-background:new 0 0 50 78;" xml:space="preserve">
<style type="text/css">
	.st0{fill:#ED7068;}
	.st1{clip-path:url(#SVGID_2_);fill:#FCD7B6;}
	.st2{clip-path:url(#SVGID_2_);fill:#EB614D;}
	.st3{clip-path:url(#SVGID_2_);fill:#F7B781;}
	.st4{fill:#EB614D;}
	.st5{fill:#E9523A;}
	.st6{fill:#FCD7B6;}
	.st7{clip-path:url(#SVGID_4_);fill:#F7B99A;}
	.st8{clip-path:url(#SVGID_4_);fill:#EB615B;}
	.st9{fill:#FCF9DD;}
	.st10{fill:#184F78;}
	.st11{fill:#4B698D;}
	.st12{fill:#00AFB8;}
	.st13{clip-path:url(#SVGID_6_);fill:#FFF5ED;}
	.st14{fill:#EC6D62;}
	.st15{fill:#FBF0CD;}
	.st16{fill:#1D4D71;}
	.st17{fill:#4D6584;}
	.st18{fill:#1DA9AC;}
	.st19{fill:#FCD8B6;}
	.st20{clip-path:url(#SVGID_8_);fill:#FDECDC;}
	.st21{clip-path:url(#SVGID_8_);fill:#FAE7BE;}
	.st22{clip-path:url(#SVGID_8_);fill:#EC6A5B;}
	.st23{clip-path:url(#SVGID_8_);fill:#FAC99D;}
	.st24{clip-path:url(#SVGID_8_);fill:#214B6B;}
	.st25{clip-path:url(#SVGID_8_);fill:#FAC89D;}
	.st26{clip-path:url(#SVGID_10_);}
	.st27{fill:#FAC99D;}
	.st28{fill:#EB615B;}
	.st29{fill:#214B6B;}
	.st30{clip-path:url(#SVGID_12_);}
	.st31{fill:#F7B99A;}
	.st32{display:none;fill:#184F78;}
	.st33{clip-path:url(#SVGID_14_);}
</style>
<g>
	<path class="st0" d="M37.9,9.1c2.8,0,5.1,2.3,5.1,5.1v49.6c0,2.8-2.3,5.1-5.1,5.1H12.1c-2.8,0-5.1-2.3-5.1-5.1V14.2
		c0-2.8,2.3-5.1,5.1-5.1H37.9z"/>
	<path class="st9" d="M38.3,13.6c0.7,0,1.3,0.6,1.3,1.3v43.3c0,0.7-0.6,1.3-1.3,1.3H11.7c-0.7,0-1.3-0.6-1.3-1.3V14.9
		c0-0.7,0.6-1.3,1.3-1.3H38.3z"/>
	<path class="st9" d="M27.9,64.1c0,1.6-1.3,2.9-2.9,2.9s-2.9-1.3-2.9-2.9s1.3-2.9,2.9-2.9S27.9,62.5,27.9,64.1z"/>
	<path class="st10" d="M25,67.4c-1.8,0-3.3-1.5-3.3-3.3s1.5-3.3,3.3-3.3s3.3,1.5,3.3,3.3S26.8,67.4,25,67.4z M25,61.5
		c-1.4,0-2.6,1.1-2.6,2.6s1.1,2.6,2.6,2.6s2.6-1.1,2.6-2.6S26.4,61.5,25,61.5z"/>
	<path class="st0" d="M32.7,35.5c0.7,0,1.3,0.6,1.3,1.3c0,0.7-0.6,1.3-1.3,1.3H17.3c-0.7,0-1.3-0.6-1.3-1.3c0-0.7,0.6-1.3,1.3-1.3
		H32.7z"/>
	<path class="st0" d="M30.1,39.9c0.7,0,1.3,0.6,1.3,1.3c0,0.7-0.6,1.3-1.3,1.3H19.9c-0.7,0-1.3-0.6-1.3-1.3c0-0.7,0.6-1.3,1.3-1.3
		H30.1z"/>
	<path class="st10" d="M31.5,27.3c0,3.6-2.9,6.5-6.5,6.5s-6.5-2.9-6.5-6.5s2.9-6.5,6.5-6.5S31.5,23.7,31.5,27.3z"/>
	<g>
		<path class="st15" d="M27,30.9c-0.1,0-0.2,0-0.2,0l-0.9-0.4c-1.1-0.5-2-1-2.7-1.8c-1.2-1.4-1.2-4-1.1-4.5c0-0.1,0.1-0.3,0.5-0.4
			l0.7-0.1c0,0,0,0,0,0c0.2,0,0.3,0,0.4,0.1c0.1,0.1,0.2,0.2,0.2,0.4l0.2,1.4c0,0.3-0.2,0.6-0.5,0.6c-0.1,0-0.2,0.1-0.2,0.1
			c0,0.1-0.1,0.2,0,0.2c0.2,0.6,0.4,1,0.7,1.5c0.2,0.3,0.5,0.6,0.9,0.8c0,0,0.1,0,0.2,0c0.2,0,0.2-0.1,0.3-0.2
			c0.1-0.2,0.3-0.4,0.6-0.4c0.1,0,0.2,0,0.2,0l1.4,0.6c0.3,0.1,0.5,0.5,0.3,0.8l-0.3,0.7c-0.1,0.2-0.2,0.3-0.3,0.3
			C27.2,30.9,27.1,30.9,27,30.9z"/>
		<path class="st15" d="M23.3,23.8c0.1,0,0.2,0,0.3,0.1c0.1,0.1,0.2,0.2,0.2,0.3l0.2,1.4c0,0.3-0.2,0.5-0.4,0.5
			c-0.1,0-0.2,0.1-0.3,0.2c-0.1,0.1-0.1,0.2-0.1,0.3c0.2,0.6,0.4,1.1,0.7,1.5c0.3,0.3,0.6,0.6,0.9,0.9c0.1,0,0.1,0.1,0.2,0.1
			c0,0,0.1,0,0.1,0c0.1,0,0.2-0.1,0.3-0.2c0.1-0.2,0.3-0.3,0.5-0.3c0.1,0,0.1,0,0.2,0l1.4,0.6c0.3,0.1,0.4,0.4,0.3,0.7l-0.3,0.7
			c-0.1,0.1-0.1,0.2-0.3,0.3c-0.1,0-0.1,0-0.2,0c-0.1,0-0.1,0-0.2,0L26,30.4c-1.1-0.5-2-1-2.6-1.8c-1.1-1.4-1.1-3.9-1.1-4.4
			c0-0.1,0-0.2,0.4-0.3L23.3,23.8C23.3,23.8,23.3,23.8,23.3,23.8 M23.3,23.6C23.3,23.6,23.3,23.6,23.3,23.6l-0.8,0.1
			c-0.4,0-0.6,0.2-0.6,0.5c0,0.5,0,3.1,1.2,4.6c0.7,0.9,1.6,1.4,2.7,1.9l0.9,0.4c0.1,0,0.2,0.1,0.3,0.1c0.1,0,0.2,0,0.3-0.1
			c0.2-0.1,0.3-0.2,0.4-0.4l0.3-0.7c0.2-0.4,0-0.8-0.4-1l-1.4-0.6c-0.1,0-0.2-0.1-0.3-0.1c-0.3,0-0.6,0.2-0.7,0.5
			c0,0-0.1,0.1-0.1,0.1c0,0,0,0,0,0c0,0-0.1,0-0.1,0c-0.3-0.2-0.6-0.5-0.9-0.8c-0.3-0.4-0.5-0.9-0.7-1.4c0,0,0-0.1,0-0.1
			c0,0,0.1-0.1,0.1-0.1c0.2,0,0.4-0.1,0.5-0.3c0.1-0.1,0.2-0.3,0.2-0.5L24,24.2c0-0.2-0.1-0.4-0.3-0.5
			C23.7,23.6,23.5,23.6,23.3,23.6L23.3,23.6z"/>
	</g>
	<g>
		<defs>
			<polygon id="SVGID_9_" points="4,6.4 4,60 45.1,6.4 			"/>
		</defs>
		<clipPath id="SVGID_2_">
			<use xlink:href="#SVGID_9_"  style="overflow:visible;"/>
		</clipPath>
		<g style="clip-path:url(#SVGID_2_);">
			<path class="st4" d="M37.9,9.1H12.1C9.3,9.1,7,11.4,7,14.2v49.6c0,2.8,2.3,5.1,5.1,5.1h25.8c2.8,0,5.1-2.3,5.1-5.1V14.2
				C43,11.4,40.7,9.1,37.9,9.1z M39.6,58.1c0,0.7-0.6,1.3-1.3,1.3H11.7c-0.7,0-1.3-0.6-1.3-1.3V14.9c0-0.7,0.6-1.3,1.3-1.3h26.5
				c0.7,0,1.3,0.6,1.3,1.3V58.1z"/>
			<path class="st27" d="M38.3,13.6H11.7c-0.7,0-1.3,0.6-1.3,1.3v43.3c0,0.7,0.6,1.3,1.3,1.3h26.5c0.7,0,1.3-0.6,1.3-1.3V14.9
				C39.6,14.2,39,13.6,38.3,13.6z M25,20.8c3.6,0,6.5,2.9,6.5,6.5c0,3.6-2.9,6.5-6.5,6.5s-6.5-2.9-6.5-6.5
				C18.5,23.7,21.4,20.8,25,20.8z M32.7,38.1H17.3c-0.7,0-1.3-0.6-1.3-1.3c0-0.7,0.6-1.3,1.3-1.3h15.3c0.7,0,1.3,0.6,1.3,1.3
				C33.9,37.5,33.4,38.1,32.7,38.1z"/>
			<path class="st9" d="M27.9,64.1c0,1.6-1.3,2.9-2.9,2.9s-2.9-1.3-2.9-2.9s1.3-2.9,2.9-2.9S27.9,62.5,27.9,64.1z"/>
			<path class="st10" d="M25,67.4c-1.8,0-3.3-1.5-3.3-3.3s1.5-3.3,3.3-3.3s3.3,1.5,3.3,3.3S26.8,67.4,25,67.4z M25,61.5
				c-1.4,0-2.6,1.1-2.6,2.6s1.1,2.6,2.6,2.6s2.6-1.1,2.6-2.6S26.4,61.5,25,61.5z"/>
			<path class="st28" d="M32.7,35.5c0.7,0,1.3,0.6,1.3,1.3c0,0.7-0.6,1.3-1.3,1.3H17.3c-0.7,0-1.3-0.6-1.3-1.3
				c0-0.7,0.6-1.3,1.3-1.3H32.7z"/>
			<path class="st0" d="M30.1,39.9c0.7,0,1.3,0.6,1.3,1.3c0,0.7-0.6,1.3-1.3,1.3H19.9c-0.7,0-1.3-0.6-1.3-1.3c0-0.7,0.6-1.3,1.3-1.3
				H30.1z"/>
			<path class="st29" d="M25,20.8c-3.6,0-6.5,2.9-6.5,6.5c0,3.6,2.9,6.5,6.5,6.5s6.5-2.9,6.5-6.5C31.5,23.7,28.6,20.8,25,20.8z
				 M28,29.9l-0.3,0.7c-0.1,0.2-0.2,0.3-0.4,0.4c-0.1,0-0.2,0.1-0.3,0.1c-0.1,0-0.2,0-0.3-0.1l-0.9-0.4c-1.1-0.5-2-1-2.7-1.9
				c-1.2-1.5-1.2-4.1-1.2-4.6c0-0.3,0.2-0.5,0.6-0.5l0.7-0.1c0,0,0.1,0,0.1,0c0.2,0,0.3,0.1,0.4,0.2c0.1,0.1,0.2,0.3,0.3,0.5
				l0.2,1.4c0,0.2,0,0.4-0.2,0.5c-0.1,0.1-0.3,0.2-0.5,0.3c0,0-0.1,0-0.1,0.1c0,0,0,0.1,0,0.1c0.2,0.5,0.4,1,0.7,1.4
				c0.2,0.3,0.5,0.6,0.9,0.8c0,0,0,0,0.1,0c0,0,0,0,0,0c0,0,0.1,0,0.1-0.1c0.1-0.3,0.4-0.5,0.7-0.5c0.1,0,0.2,0,0.3,0.1l1.4,0.6
				C28,29.1,28.2,29.6,28,29.9z"/>
			<path class="st27" d="M27.6,29l-1.4-0.6c-0.1,0-0.2-0.1-0.3-0.1c-0.3,0-0.6,0.2-0.7,0.5c0,0-0.1,0.1-0.1,0.1c0,0,0,0,0,0
				c0,0-0.1,0-0.1,0c-0.3-0.2-0.6-0.5-0.9-0.8c-0.3-0.4-0.5-0.9-0.7-1.4c0,0,0-0.1,0-0.1c0,0,0.1-0.1,0.1-0.1c0.2,0,0.4-0.1,0.5-0.3
				c0.1-0.1,0.2-0.3,0.2-0.5L24,24.2c0-0.2-0.1-0.4-0.3-0.5c-0.1-0.1-0.3-0.2-0.4-0.2c0,0-0.1,0-0.1,0l-0.7,0.1
				c-0.4,0-0.6,0.2-0.6,0.5c0,0.5,0,3.1,1.2,4.6c0.7,0.9,1.6,1.4,2.7,1.9l0.9,0.4c0.1,0,0.2,0.1,0.3,0.1c0.1,0,0.2,0,0.3-0.1
				c0.2-0.1,0.3-0.2,0.4-0.4l0.3-0.7C28.2,29.6,28,29.1,27.6,29z M25.9,28.6C25.9,28.6,25.9,28.6,25.9,28.6
				C25.9,28.6,25.9,28.6,25.9,28.6C25.9,28.6,25.9,28.6,25.9,28.6z M25.7,28.6C25.7,28.6,25.6,28.6,25.7,28.6
				C25.6,28.6,25.7,28.6,25.7,28.6z M24.9,29c0.1,0,0.1,0.1,0.2,0.1C25,29.1,24.9,29.1,24.9,29c-0.4-0.2-0.7-0.5-0.9-0.9
				C24.2,28.5,24.5,28.8,24.9,29z M23.2,26.7c0.1,0.2,0.1,0.4,0.2,0.6C23.3,27.1,23.3,26.9,23.2,26.7c0-0.1,0-0.1,0-0.2
				C23.2,26.5,23.2,26.6,23.2,26.7z M23.7,26.1c0.1-0.1,0.2-0.2,0.2-0.3C23.9,25.9,23.8,26,23.7,26.1z M23.8,24.2l0.2,1.4L23.8,24.2
				c0,0,0-0.1,0-0.1C23.8,24.1,23.8,24.2,23.8,24.2z M22.2,25.5c0.1,0.6,0.2,1.3,0.4,1.9C22.4,26.8,22.3,26.1,22.2,25.5z M23.3,28.6
				c-0.1-0.2-0.3-0.4-0.4-0.6C23,28.3,23.2,28.4,23.3,28.6c0.2,0.2,0.4,0.4,0.5,0.6C23.7,29,23.5,28.8,23.3,28.6z M27,30.8
				C27,30.8,27,30.8,27,30.8c0.1,0,0.1,0,0.2,0C27.2,30.8,27.1,30.8,27,30.8z M27.8,29.8c0.1-0.1,0.1-0.3,0-0.4
				c0-0.1-0.1-0.2-0.3-0.3l-1.4-0.6c0,0,0,0,0,0c0,0,0,0,0,0l1.4,0.6c0.1,0.1,0.2,0.2,0.3,0.3C27.8,29.6,27.8,29.7,27.8,29.8z"/>
		</g>
	</g>
</g>
<path class="st32" d="M57.1-9.2L1.2,63.6l-38.3-29.4l55.9-72.8L57.1-9.2z"/>
</svg>
