<?xml version="1.0" encoding="utf-8"?>
<!-- Generator: Adobe Illustrator 24.3.1, SVG Export Plug-In . SVG Version: 6.00 Build 0)  -->
<svg version="1.1" id="Layer_1" xmlns="http://www.w3.org/2000/svg" xmlns:xlink="http://www.w3.org/1999/xlink" x="0px" y="0px"
	 viewBox="0 0 50 78" style="enable-background:new 0 0 50 78;" xml:space="preserve">
<style type="text/css">
	.st0{fill:#ED7068;}
	.st1{clip-path:url(#SVGID_2_);fill:#FCD7B6;}
	.st2{clip-path:url(#SVGID_2_);fill:#EB614D;}
	.st3{clip-path:url(#SVGID_2_);fill:#F7B781;}
	.st4{fill:#EB614D;}
	.st5{fill:#E9523A;}
	.st6{fill:#FCD7B6;}
	.st7{clip-path:url(#SVGID_4_);fill:#F7B99A;}
	.st8{clip-path:url(#SVGID_4_);fill:#EB615B;}
	.st9{fill:#FCF9DD;}
	.st10{fill:#184F78;}
	.st11{fill:#4B698D;}
	.st12{fill:#00AFB8;}
	.st13{clip-path:url(#SVGID_6_);fill:#FFF5ED;}
	.st14{fill:#EC6D62;}
	.st15{fill:#FBF0CD;}
	.st16{fill:#1D4D71;}
	.st17{fill:#4D6584;}
	.st18{fill:#1DA9AC;}
	.st19{fill:#FCD8B6;}
	.st20{clip-path:url(#SVGID_8_);fill:#FDECDC;}
	.st21{clip-path:url(#SVGID_8_);fill:#FAE7BE;}
	.st22{clip-path:url(#SVGID_8_);fill:#EC6A5B;}
	.st23{clip-path:url(#SVGID_8_);fill:#FAC99D;}
	.st24{clip-path:url(#SVGID_8_);fill:#214B6B;}
	.st25{clip-path:url(#SVGID_8_);fill:#FAC89D;}
	.st26{clip-path:url(#SVGID_10_);}
	.st27{fill:#FAC99D;}
	.st28{fill:#EB615B;}
	.st29{fill:#214B6B;}
	.st30{clip-path:url(#SVGID_12_);}
	.st31{fill:#F7B99A;}
	.st32{display:none;fill:#184F78;}
	.st33{clip-path:url(#SVGID_14_);}
</style>
<g>
	<path class="st15" d="M47.5,64.7h-45V33.2h45V64.7z"/>
	<g>
		<path class="st6" d="M45.3,28.5L28.8,14.1c-2.1-1.8-5.5-1.8-7.6,0L4.7,28.5c-1.5,1.3-2.2,3-2.2,4.7h45
			C47.5,31.5,46.8,29.8,45.3,28.5z"/>
	</g>
	<path class="st0" d="M4.7,31.3l0.6-0.6c0.2-0.3,0.4-0.5,0.7-0.7l16.4-14.4c0.6-0.6,1.6-0.9,2.5-0.9s1.9,0.3,2.5,0.9L43.9,30
		c0.3,0.2,0.5,0.5,0.7,0.7l0.6,0.6c0.7,0.6,1.2,1.2,1.5,1.9h0.7c0-1.7-0.7-3.4-2.2-4.7L28.8,14.1c-1.1-0.9-2.4-1.4-3.8-1.4
		c-1.4,0-2.8,0.5-3.8,1.4L4.7,28.5c-1.5,1.3-2.2,3-2.2,4.7h0.7C3.6,32.5,4.1,31.9,4.7,31.3z"/>
	<path class="st10" d="M40,49.1H10v-30h30V49.1z"/>
	<g>
		<path class="st6" d="M25.3,25.5c4.1,0,5.6,2.1,5.6,4.4V35h0.6c0.5,0,0.8,0.3,0.8,0.8V36c0,0.5-0.3,0.9-0.8,0.9h-4.8
			c-2.7,0-4.4-1.8-4.4-3.8c0-1.9,1.6-3.7,4.4-3.7h1.7c0-1.1-1.3-1.8-3.1-1.8c-2.9,0-5.2,2.6-5.2,5.5c0,2.7,1.8,5,4.7,5.4
			c0.5,0.1,0.8,0.3,0.8,0.9v0.3c0,0.5-0.3,0.9-0.9,0.8c-4.3-0.4-7.2-3.5-7.2-7.4C17.6,28.9,21,25.5,25.3,25.5z M26.9,35h1.5v-4H27
			c-1.2,0-2,0.9-2,2C24.9,34.1,25.7,35,26.9,35z"/>
	</g>
	<path class="st0" d="M7.9,63.1l18.4-12.8c1-0.7,1-1.9,0-2.6L7.9,34.9c-1.5-1-3.5-1.6-5.4-1.6v31.4C4.5,64.7,6.4,64.1,7.9,63.1z"/>
	<path class="st0" d="M42.1,63.1L23.7,50.3c-1-0.7-1-1.9,0-2.6l18.4-12.8c1.5-1,3.5-1.6,5.4-1.6v31.4C45.5,64.7,43.6,64.1,42.1,63.1
		z"/>
	<path class="st28" d="M45.3,60.5L28.8,46.2c-2.1-1.8-5.5-1.8-7.6,0L4.7,60.5c-1.5,1.3-2.2,3-2.2,4.7h45
		C47.5,63.5,46.8,61.8,45.3,60.5z"/>
	<g>
		<defs>
			<polygon id="SVGID_11_" points="1,3.3 1,63.4 1.2,63.6 47.5,3.3 			"/>
		</defs>
		<clipPath id="SVGID_2_">
			<use xlink:href="#SVGID_11_"  style="overflow:visible;"/>
		</clipPath>
		<g style="clip-path:url(#SVGID_2_);">
			<path class="st6" d="M7.9,34.9c-1.5-1-3.5-1.6-5.4-1.6v-0.1H10v3.1L7.9,34.9z M40,33.2v15.9H27c-0.1,0.4-0.3,0.8-0.8,1.2
				L7.9,63.1c-1.5,1-3.5,1.6-5.4,1.6h45V33.2H40z"/>
			<g>
				<path class="st6" d="M40,23.9l5.3,4.6c1.5,1.3,2.2,3,2.2,4.7H40V23.9z M10,23.9l-5.3,4.6c-1.5,1.3-2.2,3-2.2,4.7H10V23.9z
					 M25.3,25.5c-4.3,0-7.7,3.4-7.7,7.6c0,0,0,0.1,0,0.1h2.6c0,0,0-0.1,0-0.1c0-2.9,2.2-5.5,5.2-5.5c1.8,0,3,0.7,3.1,1.8h-1.7
					c-2.8,0-4.4,1.8-4.4,3.7c0,0,0,0.1,0,0.1H25c0-0.1,0-0.1,0-0.2c0-1.1,0.8-2,2-2h1.5v2.2h2.4v-3.3C30.9,27.6,29.4,25.5,25.3,25.5
					z M34.6,19.1l-5.7-5c-2.1-1.8-5.5-1.8-7.6,0l-5.7,5H34.6z"/>
			</g>
			<path class="st0" d="M10,26.5L6.1,30c-0.3,0.2-0.5,0.5-0.7,0.7l-0.6,0.6c-0.7,0.6-1.2,1.2-1.5,1.9H2.5c0-1.7,0.7-3.4,2.2-4.7
				l5.3-4.6V26.5z M18.5,19.1l4-3.5c0.6-0.6,1.6-0.9,2.5-0.9s1.9,0.3,2.5,0.9l4,3.5h3l-5.7-5c-1.1-0.9-2.4-1.4-3.8-1.4
				c-1.4,0-2.8,0.5-3.8,1.4l-5.7,5H18.5z M45.3,28.5L40,23.9v2.7l3.9,3.4c0.3,0.2,0.5,0.5,0.7,0.7l0.6,0.6c0.7,0.6,1.2,1.2,1.5,1.9
				h0.7C47.5,31.5,46.8,29.8,45.3,28.5z"/>
			<path class="st29" d="M27,31h1.5v4h-1.5c-1.2,0-2-0.9-2-2C24.9,31.9,25.7,31,27,31z M40,19.1v30H27c0.1-0.5-0.2-1.1-0.8-1.5
				L10,36.3V19.1H40z M32.4,35.8c0-0.5-0.3-0.8-0.8-0.8h-0.6v-5.1c0-2.3-1.4-4.4-5.6-4.4c-4.3,0-7.7,3.4-7.7,7.6
				c0,3.9,2.9,7.1,7.2,7.4c0.6,0.1,0.9-0.3,0.9-0.8v-0.3c0-0.5-0.3-0.8-0.8-0.9c-2.9-0.4-4.7-2.7-4.7-5.4c0-2.9,2.2-5.5,5.2-5.5
				c1.8,0,3,0.7,3.1,1.8h-1.7c-2.8,0-4.4,1.8-4.4,3.7c0,2,1.6,3.8,4.4,3.8h4.8c0.5,0,0.8-0.3,0.8-0.9V35.8z"/>
			<path class="st31" d="M25.3,25.5c4.1,0,5.6,2.1,5.6,4.4V35h0.6c0.5,0,0.8,0.3,0.8,0.8V36c0,0.5-0.3,0.9-0.8,0.9h-4.8
				c-2.7,0-4.4-1.8-4.4-3.8c0-1.9,1.6-3.7,4.4-3.7h1.7c0-1.1-1.3-1.8-3.1-1.8c-2.9,0-5.2,2.6-5.2,5.5c0,2.7,1.8,5,4.7,5.4
				c0.5,0.1,0.8,0.3,0.8,0.9v0.3c0,0.5-0.3,0.9-0.9,0.8c-4.3-0.4-7.2-3.5-7.2-7.4C17.6,28.9,21,25.5,25.3,25.5z M26.9,35h1.5v-4H27
				c-1.2,0-2,0.9-2,2C24.9,34.1,25.7,35,26.9,35z"/>
			<path class="st28" d="M7.9,63.1l18.4-12.8c1-0.7,1-1.9,0-2.6L7.9,34.9c-1.5-1-3.5-1.6-5.4-1.6v31.4C4.5,64.7,6.4,64.1,7.9,63.1z"
				/>
			<path class="st0" d="M42.1,63.1L23.7,50.3c-1-0.7-1-1.9,0-2.6l18.4-12.8c1.5-1,3.5-1.6,5.4-1.6v31.4
				C45.5,64.7,43.6,64.1,42.1,63.1z"/>
			<path class="st28" d="M45.3,60.5L28.8,46.2c-2.1-1.8-5.5-1.8-7.6,0L4.7,60.5c-1.5,1.3-2.2,3-2.2,4.7h45
				C47.5,63.5,46.8,61.8,45.3,60.5z"/>
		</g>
	</g>
</g>
</svg>
