<?xml version="1.0" encoding="utf-8"?>
<!-- Generator: Adobe Illustrator 24.3.1, SVG Export Plug-In . SVG Version: 6.00 Build 0)  -->
<svg version="1.1" id="Layer_1" xmlns="http://www.w3.org/2000/svg" xmlns:xlink="http://www.w3.org/1999/xlink" x="0px" y="0px"
	 viewBox="0 0 126.5 40" style="enable-background:new 0 0 126.5 40;" xml:space="preserve">
<style type="text/css">
	.st0{fill:#888888;}
</style>
<g>
	<path class="st0" d="M53.4,28.3v-3.1h-2c-2.4,0-3.3,0.7-3.3,2.4c0,1.5,0.6,2.2,2,2.2C51.6,29.8,52.3,29.2,53.4,28.3 M53.8,31.5v-1
		c-2,1.8-3.5,2-5,2c-3,0-4.7-1.8-4.7-4.9c0-3.5,2.2-5.1,6.9-5.1h2.4v-0.9c0-2-0.7-2.6-2.8-2.6c-1.2,0-2.6,0.1-4.3,0.5
		c-0.3,0.1-0.6-0.2-0.6-0.5v-2c0-0.3,0.2-0.6,0.6-0.7c1-0.2,2.7-0.5,5.3-0.5c4.3,0,5.9,1.5,5.9,5.6v10c0,0.3-0.3,0.6-0.6,0.6h-2.4
		C54.1,32.1,53.8,31.9,53.8,31.5"/>
	<path class="st0" d="M91.6,28.3v-3.1h-2c-2.4,0-3.3,0.7-3.3,2.4c0,1.5,0.6,2.2,2,2.2C89.8,29.8,90.5,29.2,91.6,28.3 M91.9,31.5v-1
		c-2,1.8-3.5,2-5,2c-3,0-4.7-1.8-4.7-4.9c0-3.5,2.2-5.1,6.9-5.1h2.4v-0.9c0-2-0.7-2.6-2.9-2.6c-1.2,0-2.9,0.1-4.5,0.5
		c-0.3,0.1-0.6-0.2-0.6-0.5v-2c0-0.3,0.2-0.6,0.6-0.7c1.1-0.2,2.9-0.6,5.5-0.6c4.4,0,6,1.5,6,5.6v10c0,0.3-0.3,0.6-0.6,0.6h-2.4
		C92.2,32.1,91.9,31.9,91.9,31.5"/>
	<path class="st0" d="M121.6,32.6c-3.9,0-5.5-1.4-5.5-5.5v-14c0-0.3,0.3-0.6,0.6-0.6h2.8c0.3,0,0.6,0.3,0.6,0.6v3.3h4.5
		c0.3,0,0.6,0.3,0.6,0.6v2.1c0,0.3-0.3,0.6-0.6,0.6h-4.5V27c0,1.6,0.7,2.3,2.2,2.3c1.2,0,1.9-0.1,2.6-0.1c0.3,0,0.6,0.2,0.6,0.5v1.9
		c0,0.4-0.2,0.6-0.6,0.7C123.6,32.5,122.9,32.6,121.6,32.6"/>
	<path class="st0" d="M102.6,17v0.9c1.5-1.3,3.2-2,5.2-2c3.2,0,4.9,1.4,4.9,4.9l0,10.8c0,0.3-0.3,0.6-0.6,0.6h-2.8
		c-0.3,0-0.6-0.3-0.6-0.6V22c0-2-0.7-2.6-2.3-2.6c-1.2,0-2.2,0.4-3.4,1.3v10.9c0,0.3-0.3,0.6-0.6,0.6h-2.8c-0.3,0-0.6-0.3-0.6-0.6
		V17c0-0.3,0.3-0.6,0.6-0.6h2.4C102.3,16.4,102.6,16.6,102.6,17"/>
	<path class="st0" d="M75.7,31.5V10.6c0-0.3,0.3-0.6,0.6-0.6h2.8c0.3,0,0.6,0.3,0.6,0.6v20.9c0,0.3-0.3,0.6-0.6,0.6h-2.8
		C76,32.1,75.7,31.9,75.7,31.5"/>
	<path class="st0" d="M68.2,31.5V10.6c0-0.3,0.3-0.6,0.6-0.6h2.8c0.3,0,0.6,0.3,0.6,0.6v20.9c0,0.3-0.3,0.6-0.6,0.6h-2.8
		C68.5,32.1,68.2,31.9,68.2,31.5"/>
	<path class="st0" d="M60.8,31.5V17c0-0.3,0.3-0.6,0.6-0.6h2.8c0.3,0,0.6,0.3,0.6,0.6v14.6c0,0.3-0.3,0.6-0.6,0.6h-2.8
		C61.1,32.1,60.8,31.9,60.8,31.5"/>
	<path class="st0" d="M60.7,13.2v-2.6c0-0.3,0.3-0.6,0.6-0.6h2.9c0.3,0,0.6,0.3,0.6,0.6v2.6c0,0.3-0.3,0.6-0.6,0.6h-2.9
		C61,13.8,60.7,13.6,60.7,13.2"/>
	<path class="st0" d="M45.2,10.7l-6.4,20.9c-0.1,0.3-0.4,0.5-0.7,0.5h-3.9c-0.3,0-0.6-0.2-0.7-0.5l-6.3-20.9
		c-0.1-0.3,0.2-0.7,0.5-0.7H31c0.3,0,0.6,0.2,0.7,0.5l4.6,17.5l4.6-17.5c0.1-0.3,0.4-0.5,0.7-0.5h3.1C45.1,10,45.3,10.4,45.2,10.7"
		/>
	<path class="st0" d="M8.3,7c1.2-0.7,2.6-1.1,4.1-1.1s2.8,0.4,4.1,1.1c-0.3,0.5-0.6,1.1-1,1.8c-1-0.6-2-0.9-3.1-0.9
		c-1.1,0-2.1,0.3-3.1,0.9C9,8.1,8.6,7.5,8.3,7 M20.2,10.4c-0.3,0.9-0.6,1.6-1,2.3c1.8,2.8,2.8,6.4,2.8,9.6c0,3.1-1,6.2-2.8,8.4
		c-1.3,1.6-3.5,3.5-6.8,3.5s-5.5-1.9-6.8-3.5c-1.8-2.2-2.8-5.3-2.8-8.4c0-3.2,1.1-6.8,2.8-9.6c-0.4-0.7-0.6-1.4-1-2.3
		c-2.5,3.3-4,7.9-4,11.9c0,4.1,1.5,7.5,3.3,9.7c2.1,2.5,4.9,4.3,8.5,4.3s6.4-1.8,8.5-4.3c1.8-2.2,3.3-5.7,3.3-9.7
		C24.2,18.3,22.7,13.7,20.2,10.4"/>
	<path class="st0" d="M15.1,21.4c0.2-0.3-0.1-0.5-0.2-0.6c0,0,0-0.1,0-0.1c0.3-0.7,0.9-1,1.3-0.7c0.4,0.2,0.4,1.1,0,2
		c-0.4,0.8-1.3,1.1-1.7,0.9c-0.2-0.2-0.3-0.5,0-1.3c0-0.1,0.1-0.1,0.2-0.1C14.6,21.5,14.9,21.6,15.1,21.4 M20.4,26.7l-4.3,0
		c0,0.2,0,0.3,0,0.5l4.2,0c0.2,0,0.3-0.1,0.3-0.3C20.6,26.8,20.5,26.7,20.4,26.7 M21,25.6c0,0.1-0.1,0.3-0.2,0.3L16,26.1l0,0l0,0
		c-0.3-0.7-1-0.6-1-1.2c0-0.3,0.2-0.5,0.3-0.7c0.7-0.8,1.9-2,2-3.6c0.1-1-0.2-2.4-1-2.6c-1.6-0.3-3.2,3.3-3.2,5.6
		c0,0.9,0,1.2,0.3,1.8c0.2,0.3,0.4,0.6,0.4,1c0,0.5-0.5,0.6-0.7,0.8c-0.7,0.6,0,1.7,1.2,1.7c0.8,0,1.5-0.4,1.7-1.2l0,0l3.7,0.2
		c0.1,0,0.2,0.1,0.2,0.3c0,0.1-0.1,0.2-0.3,0.2l-3-0.2c-0.8,1.5-3.3,2.9-4.3,2.9S8.9,29.8,8,28.3l-3,0.2c-0.1,0-0.3-0.1-0.3-0.2
		C4.7,28.1,4.8,28,5,28l3.7-0.2c0.2,0.8,0.9,1.2,1.7,1.2c1.2,0,1.9-1.1,1.2-1.7c-0.2-0.2-0.7-0.4-0.7-0.8c0-0.4,0.2-0.7,0.4-1
		c0.4-0.5,0.3-0.8,0.3-1.8c0-2.3-1.6-6-3.2-5.6c-0.8,0.2-1.1,1.6-1,2.6c0.1,1.7,1.3,2.8,2,3.6c0.2,0.2,0.3,0.3,0.3,0.7
		c0,0.6-0.7,0.5-1,1.2l0,0L4,25.9c-0.1,0-0.3-0.1-0.2-0.3c0-0.1,0.1-0.2,0.3-0.2l3.3,0.2c0.4-2.2-0.8-5-0.5-6.9
		C7,17.2,8,16,8.8,15.4c0.1-0.1,0.1-0.2,0.1-0.3c-0.3-1-0.6-2.7-1.5-4.9C6.5,8,5.7,5.8,5.2,5.9c-0.5,0.1-0.2,2.2,0.9,4.9
		s2.2,3.9,1.8,4.1c-0.3,0.2-0.8-0.6-1.4-1.6C5.8,12,5.3,10.7,4.8,9c-0.6-2.1-0.9-5-0.1-5.2C5.5,3.7,7,6,8.8,9.3
		c1.7,3.3,2.3,5.2,2.3,5.2c0,0.1,0.1,0.2,0.2,0.2c0.3-0.1,0.7-0.1,1-0.1c0.4,0,0.7,0,1,0.1c0.2,0,0.2-0.1,0.2-0.2
		c0,0,0.6-1.9,2.3-5.2C17.7,6,19.2,3.7,20,3.8c0.9,0.1,0.6,3.1,0,5.1c-0.6,1.8-1.1,3.1-1.8,4.3c-0.6,1-1.1,1.8-1.4,1.6
		c-0.3-0.2,0.8-1.4,1.8-4.1c1-2.7,1.4-4.8,0.9-4.9c-0.5,0-1.3,2.2-2.2,4.4c-0.9,2.2-1.2,3.9-1.5,4.9c0,0.1,0,0.2,0.1,0.3
		c0.8,0.6,1.9,1.8,2,3.3c0.2,1.8-0.9,4.7-0.5,6.9l3.3-0.2C20.9,25.4,21,25.5,21,25.6 M12.4,29c-0.3,0.3-0.8,0.6-1.3,0.8
		c0.4,0.4,0.8,0.5,1.3,0.5c0.5,0,0.9-0.2,1.3-0.5C13.2,29.7,12.7,29.3,12.4,29 M10,20.8c0,0,0-0.1,0-0.1c-0.3-0.7-0.9-1-1.3-0.7
		c-0.4,0.2-0.4,1.1,0,2c0.4,0.8,1.4,1.1,1.7,0.9c0.2-0.2,0.3-0.5,0-1.3c0-0.1-0.1-0.1-0.2-0.1c0,0-0.4,0.1-0.5-0.1
		C9.5,21.1,9.9,20.9,10,20.8 M8.7,26.7l-4.2,0c-0.1,0-0.3,0.1-0.3,0.3s0.1,0.3,0.3,0.3l4.2,0C8.7,27,8.7,26.8,8.7,26.7"/>
</g>
</svg>
