<?xml version="1.0" encoding="utf-8"?>
<!-- Generator: Adobe Illustrator 24.3.1, SVG Export Plug-In . SVG Version: 6.00 Build 0)  -->
<svg version="1.1" id="Layer_1" xmlns="http://www.w3.org/2000/svg" xmlns:xlink="http://www.w3.org/1999/xlink" x="0px" y="0px"
	 viewBox="0 0 50 78" style="enable-background:new 0 0 50 78;" xml:space="preserve">
<style type="text/css">
	.st0{fill:#ED7068;}
	.st1{clip-path:url(#SVGID_2_);fill:#FCD7B6;}
	.st2{clip-path:url(#SVGID_2_);fill:#EB614D;}
	.st3{clip-path:url(#SVGID_2_);fill:#F7B781;}
	.st4{fill:#EB614D;}
	.st5{fill:#E9523A;}
	.st6{fill:#FCD7B6;}
	.st7{clip-path:url(#SVGID_4_);fill:#F7B99A;}
	.st8{clip-path:url(#SVGID_4_);fill:#EB615B;}
	.st9{fill:#FCF9DD;}
	.st10{fill:#184F78;}
	.st11{fill:#4B698D;}
	.st12{fill:#00AFB8;}
	.st13{clip-path:url(#SVGID_6_);fill:#FFF5ED;}
	.st14{fill:#EC6D62;}
	.st15{fill:#FBF0CD;}
	.st16{fill:#1D4D71;}
	.st17{fill:#4D6584;}
	.st18{fill:#1DA9AC;}
	.st19{fill:#FCD8B6;}
	.st20{clip-path:url(#SVGID_8_);fill:#FDECDC;}
	.st21{clip-path:url(#SVGID_8_);fill:#FAE7BE;}
	.st22{clip-path:url(#SVGID_8_);fill:#EC6A5B;}
	.st23{clip-path:url(#SVGID_8_);fill:#FAC99D;}
	.st24{clip-path:url(#SVGID_8_);fill:#214B6B;}
	.st25{clip-path:url(#SVGID_8_);fill:#FAC89D;}
	.st26{clip-path:url(#SVGID_10_);}
	.st27{fill:#FAC99D;}
	.st28{fill:#EB615B;}
	.st29{fill:#214B6B;}
	.st30{clip-path:url(#SVGID_12_);}
	.st31{fill:#F7B99A;}
	.st32{display:none;fill:#184F78;}
	.st33{clip-path:url(#SVGID_14_);}
</style>
<g>
	<path class="st28" d="M46,58H4c-1.7,0-3-1.3-3-3v-2h48v2C49,56.7,47.7,58,46,58z"/>
	<path class="st0" d="M9.1,20c-2.5,0-4.6,2-4.6,4.6V53h41V24.5c0-2.5-2-4.6-4.6-4.6H9.1z"/>
	<path class="st9" d="M8.7,24c-0.6,0-1.1,0.5-1.1,1.1v20.7c0,0.6,0.5,1.1,1.1,1.1h32.6c0.6,0,1.1-0.5,1.1-1.1V25.1
		c0-0.6-0.5-1.1-1.1-1.1H8.7z"/>
	<ellipse class="st6" cx="25" cy="50" rx="1.8" ry="1.9"/>
	<path class="st12" d="M14.8,29.9h-3.5c-1.1,0-2-0.9-2-2v0c0-1.1,0.9-2,2-2h3.5c1.1,0,2,0.9,2,2v0C16.8,29,15.9,29.9,14.8,29.9z"/>
	<circle class="st10" cx="39" cy="27.5" r="1.5"/>
	<circle class="st10" cx="35" cy="27.5" r="1.5"/>
	<circle class="st10" cx="31" cy="27.5" r="1.5"/>
	<path class="st0" d="M13.3,32.5c-0.7,0-1.3,0.6-1.3,1.3c0,0.7,0.6,1.3,1.3,1.3h23.3c0.7,0,1.3-0.6,1.3-1.3c0-0.7-0.6-1.3-1.3-1.3
		H13.3z"/>
	<path class="st0" d="M13.3,36.9c-0.7,0-1.3,0.6-1.3,1.3c0,0.7,0.6,1.3,1.3,1.3h18.2c0.7,0,1.3-0.6,1.3-1.3c0-0.7-0.6-1.3-1.3-1.3
		H13.3z"/>
	<path class="st0" d="M13.3,41.5c-0.7,0-1.3,0.6-1.3,1.3c0,0.7,0.6,1.3,1.3,1.3h23.3c0.7,0,1.3-0.6,1.3-1.3c0-0.7-0.6-1.3-1.3-1.3
		H13.3z"/>
	<g>
		<defs>
			<polygon id="SVGID_13_" points="0.8,3.3 0.8,63.4 1,63.6 47.2,3.3 			"/>
		</defs>
		<clipPath id="SVGID_2_">
			<use xlink:href="#SVGID_13_"  style="overflow:visible;"/>
		</clipPath>
		<g style="clip-path:url(#SVGID_2_);">
			<path class="st28" d="M40.9,20H9.1c-2.5,0-4.6,2-4.6,4.6V53h41V24.5C45.5,22,43.5,20,40.9,20z M42.4,45.8c0,0.6-0.5,1.1-1.1,1.1
				H8.7c-0.6,0-1.1-0.5-1.1-1.1V25.1c0-0.6,0.5-1.1,1.1-1.1h32.6c0.6,0,1.1,0.5,1.1,1.1V45.8z"/>
			<path class="st28" d="M46,58H4c-1.7,0-3-1.3-3-3v-2h48v2C49,56.7,47.7,58,46,58z"/>
			<path class="st6" d="M41.3,24H8.7c-0.6,0-1.1,0.5-1.1,1.1v20.7c0,0.6,0.5,1.1,1.1,1.1h32.6c0.6,0,1.1-0.5,1.1-1.1V25.1
				C42.4,24.5,41.9,24,41.3,24z M36.7,44.1H13.3c-0.7,0-1.3-0.6-1.3-1.3c0-0.7,0.6-1.3,1.3-1.3h23.3c0.7,0,1.3,0.6,1.3,1.3
				C37.9,43.5,37.4,44.1,36.7,44.1z M12.1,38.2c0-0.7,0.6-1.3,1.3-1.3h18.2c0.7,0,1.3,0.6,1.3,1.3c0,0.7-0.6,1.3-1.3,1.3H13.3
				C12.6,39.5,12.1,38.9,12.1,38.2z M36.7,35.1H13.3c-0.7,0-1.3-0.6-1.3-1.3c0-0.7,0.6-1.3,1.3-1.3h23.3c0.7,0,1.3,0.6,1.3,1.3
				C37.9,34.5,37.4,35.1,36.7,35.1z"/>
			<ellipse class="st6" cx="25" cy="50" rx="1.8" ry="1.9"/>
			<path class="st18" d="M14.8,29.9h-3.5c-1.1,0-2-0.9-2-2v0c0-1.1,0.9-2,2-2h3.5c1.1,0,2,0.9,2,2v0C16.8,29,15.9,29.9,14.8,29.9z"
				/>
			<circle class="st10" cx="39" cy="27.5" r="1.5"/>
			<circle class="st10" cx="35" cy="27.5" r="1.5"/>
			<circle class="st10" cx="31" cy="27.5" r="1.5"/>
			<path class="st28" d="M13.3,32.5c-0.7,0-1.3,0.6-1.3,1.3c0,0.7,0.6,1.3,1.3,1.3h23.3c0.7,0,1.3-0.6,1.3-1.3
				c0-0.7-0.6-1.3-1.3-1.3H13.3z"/>
			<path class="st28" d="M13.3,36.9c-0.7,0-1.3,0.6-1.3,1.3c0,0.7,0.6,1.3,1.3,1.3h18.2c0.7,0,1.3-0.6,1.3-1.3
				c0-0.7-0.6-1.3-1.3-1.3H13.3z"/>
			<path class="st28" d="M13.3,41.5c-0.7,0-1.3,0.6-1.3,1.3c0,0.7,0.6,1.3,1.3,1.3h23.3c0.7,0,1.3-0.6,1.3-1.3
				c0-0.7-0.6-1.3-1.3-1.3H13.3z"/>
		</g>
	</g>
</g>
</svg>
