<?xml version="1.0" encoding="utf-8"?>
<!-- Generator: Adobe Illustrator 24.3.1, SVG Export Plug-In . SVG Version: 6.00 Build 0)  -->
<svg version="1.1" id="Layer_1" xmlns="http://www.w3.org/2000/svg" xmlns:xlink="http://www.w3.org/1999/xlink" x="0px" y="0px"
	 viewBox="0 0 176 56" style="enable-background:new 0 0 176 56;" xml:space="preserve">
<style type="text/css">
	.st0{fill:#FDFCDC;}
	.st1{fill:#F07167;}
</style>
<path class="st0" d="M1.1,1.5C0.8,0.6,1.3,0,2.3,0h1.2C4.3,0,4.8,0.4,5,1.2l7.4,29.4c0.5,2,0.9,4.2,0.9,4.2h0.1c0,0,0.4-2.2,1-4.2
	l8.1-29.5C22.7,0.4,23.2,0,24,0h1.3c0.8,0,1.3,0.4,1.5,1.2l8.1,29.5c0.6,2,1,4.2,1,4.2H36c0,0,0.3-2.2,0.8-4.2l7.7-29.4
	C44.8,0.4,45.3,0,46.1,0h1.2c1,0,1.5,0.6,1.2,1.5l-9.8,36.8c-0.2,0.8-0.7,1.2-1.6,1.2H35c-0.8,0-1.3-0.4-1.6-1.2l-7.3-26.6
	c-0.7-2.5-1.4-5.9-1.4-5.9h-0.2c0,0-0.7,3.4-1.4,5.9l-7.4,26.6c-0.2,0.8-0.7,1.2-1.5,1.2h-2.2c-0.8,0-1.3-0.4-1.5-1.2L1.1,1.5z"/>
<path class="st0" d="M57.9,36.9c5.4,0,8.6-5.6,8.6-10.6V25h-1.6c-4.4,0-13.4,0.2-13.4,6.5C51.6,34.2,53.7,36.9,57.9,36.9 M64.9,22.2
	h1.6v-0.9c0-5.4-3-7.3-7-7.3c-3.1,0-5.6,1.2-6.8,2c-0.8,0.4-1.4,0.3-1.9-0.4l-0.3-0.6c-0.4-0.7-0.3-1.5,0.4-1.9
	c1.5-0.9,4.6-2.5,9-2.5c6.7,0,10.5,3.8,10.5,10.8v16.7c0,0.9-0.4,1.4-1.3,1.4h-0.9c-0.9,0-1.4-0.4-1.4-1.4v-2.2
	c0-1.3,0.2-2.1,0.2-2.1h-0.1c0.1,0-2.5,6.5-9.5,6.5c-4.8,0-9.5-2.8-9.5-8.3C47.7,22.7,59.4,22.2,64.9,22.2"/>
<path class="st0" d="M75.3,12.6c0-0.9,0.5-1.4,1.4-1.4h1c0.8,0,1.3,0.5,1.3,1.4v3.8c0,1.2-0.2,2.2-0.2,2.2h0.1
	c1.3-4.1,4.6-7.6,9.1-7.6c1,0,1.5,0.4,1.5,1.3v1c0,0.9-0.6,1.4-1.6,1.4c-6,0-8.8,6.8-8.8,12.7v10.6c0,0.9-0.4,1.4-1.3,1.4h-1.1
	c-0.9,0-1.4-0.5-1.4-1.4V12.6z"/>
<path class="st0" d="M90.9,12.6c0-0.9,0.5-1.4,1.4-1.4h1c0.8,0,1.3,0.5,1.3,1.4v3.3c0,1.1-0.2,2-0.2,2h0.1c1.4-3.8,6-7.4,10.4-7.4
	c5.2,0,7.9,2.4,8.7,7.1h0.1c1.6-3.6,5.7-7.1,10.4-7.1c6.8,0,9.4,4,9.4,10.9v16.6c0,0.9-0.5,1.4-1.4,1.4h-1c-0.9,0-1.4-0.5-1.4-1.4
	V22.5c0-4.6-1-8.4-6.1-8.4c-5.7,0-9.5,6-9.5,11.8v12.2c0,0.9-0.4,1.4-1.3,1.4h-1.1c-0.9,0-1.4-0.5-1.4-1.4V22.5c0-4.3-0.6-8.4-6-8.4
	c-5.7,0-9.7,6.1-9.7,11.8v12.2c0,0.9-0.4,1.4-1.3,1.4h-1.1c-0.9,0-1.4-0.5-1.4-1.4V12.6z"/>
<path class="st0" d="M138.5,1.4c0-0.9,0.4-1.4,1.3-1.4h1.1c0.9,0,1.4,0.5,1.4,1.4v30.7c0,3.5,1.7,3.9,2.9,4.1
	c0.7,0.1,1.2,0.4,1.2,1.2v0.8c0,0.8-0.4,1.4-1.5,1.4c-2.3,0-6.5-0.7-6.5-6.9V1.4z"/>
<path class="st0" d="M169.8,11.2h-1.2c-0.8,0-1.3,0.3-1.6,1.1l-7.7,19.5c-0.6,1.4-1,3-1,3h-0.1c0,0-0.5-1.6-1-3l-7.9-19.5
	c-0.3-0.7-0.7-1.1-1.6-1.1h-1.3c-1,0-1.5,0.7-1.1,1.6l11.1,26.4l-1.4,3.3c0.1,0,0.1,0,0.2,0c0.8,0,1.6,0.3,2.2,0.8
	c0.2,0.2,0.4,0.4,0.6,0.7l12.8-31.1C171.2,11.8,170.8,11.2,169.8,11.2"/>
<path class="st1" d="M156.6,47.2c0.3-0.4,0.4-0.8,0.4-1.3c-0.1-0.5-0.3-0.9-0.6-1.2c-0.3-0.2-0.7-0.4-1.1-0.4c-0.5,0-1,0.2-1.4,0.6
	c-3.1,3.9-8.1,6.2-13.4,6.2c-5.3,0-10.4-2.3-13.5-6.2c-0.3-0.4-0.8-0.7-1.4-0.7c-0.4,0-0.8,0.1-1.1,0.4c-0.4,0.3-0.6,0.7-0.6,1.2
	c-0.1,0.5,0.1,0.9,0.4,1.3c3.7,4.7,9.8,7.5,16.2,7.5C146.8,54.6,152.8,51.8,156.6,47.2"/>
</svg>
