<?xml version="1.0" encoding="utf-8"?>
<!-- Generator: Adobe Illustrator 24.3.1, SVG Export Plug-In . SVG Version: 6.00 Build 0)  -->
<svg version="1.1" id="Layer_1" xmlns="http://www.w3.org/2000/svg" xmlns:xlink="http://www.w3.org/1999/xlink" x="0px" y="0px"
	 viewBox="0 0 240 80" style="enable-background:new 0 0 240 80;" xml:space="preserve">
<style type="text/css">
	.st0{fill:#CE5145;}
	.st1{fill:#0280A7;}
</style>
<path class="st0" d="M1.1,3.9C0.8,2.5,1.4,1.8,2.8,1.8h1.7c1.1,0,1.8,0.6,2.1,1.7L17,44.7c0.7,2.8,1.3,5.9,1.3,5.9h0.2
	c0,0,0.6-3.1,1.3-5.9L31.1,3.4c0.3-1.1,1-1.7,2.1-1.7H35c1.2,0,1.8,0.6,2.1,1.7l11.3,41.3c0.9,2.8,1.4,5.9,1.4,5.9h0.2
	c0,0,0.5-3.1,1.2-5.9L62,3.5c0.3-1.2,1-1.7,2.1-1.7h1.7c1.3,0,2,0.8,1.7,2.1L53.8,55.4c-0.3,1.1-1,1.7-2.2,1.7h-3
	c-1.2,0-1.9-0.6-2.2-1.7L36.2,18.1c-1-3.5-2-8.3-2-8.3H34c0,0-0.9,4.7-2,8.3L21.8,55.4c-0.3,1.1-1,1.7-2.1,1.7h-3.1
	c-1.2,0-1.8-0.6-2.1-1.7L1.1,3.9z"/>
<path class="st0" d="M80.6,53.5c7.6,0,12.1-7.9,12.1-14.8v-1.9h-2.2c-6.2,0-18.7,0.2-18.7,9.1C71.8,49.6,74.7,53.5,80.6,53.5
	 M90.4,32.8h2.3v-1.3c0-7.6-4.2-10.2-9.7-10.2c-4.4,0-7.8,1.7-9.6,2.8c-1.1,0.6-2,0.4-2.7-0.6l-0.5-0.8c-0.6-1-0.5-2,0.5-2.7
	c2-1.3,6.4-3.5,12.6-3.5c9.4,0,14.7,5.3,14.7,15.2v23.3c0,1.3-0.6,2-1.9,2h-1.3c-1.3,0-2-0.6-2-2v-3.1c0-1.8,0.2-3,0.2-3H93
	c0.1,0-3.5,9-13.4,9C73,58,66.3,54,66.3,46.4C66.3,33.5,82.8,32.8,90.4,32.8"/>
<path class="st0" d="M105,19.4c0-1.3,0.7-2,2-2h1.4c1.2,0,1.9,0.7,1.9,2v5.3c0,1.7-0.3,3.1-0.3,3.1h0.2c1.9-5.7,6.4-10.7,12.7-10.7
	c1.4,0,2,0.6,2,1.9v1.4c0,1.3-0.9,2-2.2,2c-8.3,0-12.3,9.5-12.3,17.8v14.8c0,1.3-0.6,2-1.9,2H107c-1.3,0-2-0.7-2-2V19.4z"/>
<path class="st0" d="M126.8,19.4c0-1.3,0.7-2,2-2h1.4c1.2,0,1.9,0.7,1.9,2V24c0,1.6-0.3,2.8-0.3,2.8h0.2c2-5.3,8.3-10.3,14.5-10.3
	c7.3,0,11.1,3.4,12.2,9.9h0.2c2.2-5,7.9-9.9,14.5-9.9c9.6,0,13.1,5.6,13.1,15.3v23.2c0,1.3-0.7,2-2,2h-1.4c-1.3,0-2-0.7-2-2V33.2
	c0-6.4-1.3-11.8-8.5-11.8c-7.9,0-13.3,8.3-13.3,16.5v17.1c0,1.3-0.6,2-1.9,2H156c-1.3,0-2-0.7-2-2V33.2c0-6-0.9-11.8-8.3-11.8
	c-8,0-13.5,8.5-13.5,16.5v17.1c0,1.3-0.6,2-1.9,2h-1.5c-1.3,0-2-0.7-2-2V19.4z"/>
<path class="st0" d="M193.5,3.7c0-1.3,0.6-2,1.9-2h1.5c1.3,0,2,0.7,2,2v43c0,5,2.4,5.5,4.1,5.7c0.9,0.1,1.7,0.5,1.7,1.7v1.2
	c0,1.2-0.6,2-2,2c-3.2,0-9-1-9-9.7V3.7z"/>
<path class="st0" d="M237.3,17.5h-1.7c-1.2,0-1.8,0.5-2.2,1.6l-10.8,27.3c-0.8,2-1.3,4.2-1.3,4.2H221c0,0-0.7-2.2-1.4-4.2L208.5,19
	c-0.4-1-1-1.5-2.2-1.5h-1.8c-1.4,0-2,0.9-1.5,2.3l15.6,36.9l-1.9,4.5c0.1,0,0.2,0,0.3,0c1.2,0,2.2,0.4,3.1,1.1
	c0.3,0.3,0.6,0.6,0.9,0.9l17.9-43.5C239.3,18.3,238.7,17.5,237.3,17.5"/>
<path class="st1" d="M218.8,67.8c0.4-0.5,0.6-1.1,0.5-1.8c-0.1-0.6-0.4-1.2-0.9-1.6c-0.4-0.3-1-0.5-1.5-0.5c-0.7,0-1.4,0.3-1.9,0.9
	c-4.3,5.4-11.4,8.6-18.8,8.6c-7.5,0-14.5-3.2-18.8-8.7c-0.5-0.6-1.2-0.9-1.9-0.9c-0.6,0-1.1,0.2-1.5,0.5c-0.5,0.4-0.8,1-0.9,1.6
	c-0.1,0.6,0.1,1.3,0.5,1.8c5.2,6.6,13.7,10.5,22.6,10.5C205.1,78.2,213.6,74.3,218.8,67.8"/>
</svg>
