<?xml version="1.0" encoding="utf-8"?>
<!-- Generator: Adobe Illustrator 24.3.1, SVG Export Plug-In . SVG Version: 6.00 Build 0)  -->
<svg version="1.1" id="Layer_1" xmlns="http://www.w3.org/2000/svg" xmlns:xlink="http://www.w3.org/1999/xlink" x="0px" y="0px"
	 viewBox="0 0 50 78" style="enable-background:new 0 0 50 78;" xml:space="preserve">
<style type="text/css">
	.st0{fill:#ED7068;}
	.st1{clip-path:url(#SVGID_2_);fill:#FCD7B6;}
	.st2{clip-path:url(#SVGID_2_);fill:#EB614D;}
	.st3{clip-path:url(#SVGID_2_);fill:#F7B781;}
	.st4{fill:#EB614D;}
	.st5{fill:#E9523A;}
	.st6{fill:#FCD7B6;}
	.st7{clip-path:url(#SVGID_4_);fill:#F7B99A;}
	.st8{clip-path:url(#SVGID_4_);fill:#EB615B;}
	.st9{fill:#FCF9DD;}
	.st10{fill:#184F78;}
	.st11{fill:#4B698D;}
	.st12{fill:#00AFB8;}
	.st13{clip-path:url(#SVGID_6_);fill:#FFF5ED;}
	.st14{fill:#EC6D62;}
	.st15{fill:#FBF0CD;}
	.st16{fill:#1D4D71;}
	.st17{fill:#4D6584;}
	.st18{fill:#1DA9AC;}
	.st19{fill:#FCD8B6;}
	.st20{clip-path:url(#SVGID_8_);fill:#FDECDC;}
	.st21{clip-path:url(#SVGID_8_);fill:#FAE7BE;}
	.st22{clip-path:url(#SVGID_8_);fill:#EC6A5B;}
	.st23{clip-path:url(#SVGID_8_);fill:#FAC99D;}
	.st24{clip-path:url(#SVGID_8_);fill:#214B6B;}
	.st25{clip-path:url(#SVGID_8_);fill:#FAC89D;}
</style>
<g>
	<path class="st6" d="M25,58.8c10.9,0,19.8-8.9,19.8-19.8c0-10.9-8.9-19.8-19.8-19.8C14.1,19.2,5.2,28.1,5.2,39
		C5.2,49.9,14.1,58.8,25,58.8"/>
	<path class="st0" d="M25,23.1c3.1,0,6,0.9,8.4,2.4L11.5,47.4C10,45,9.1,42.1,9.1,39C9.1,30.2,16.2,23.1,25,23.1 M25,54.9
		c-3.1,0-6-0.9-8.4-2.4l21.9-21.9c1.5,2.4,2.4,5.3,2.4,8.4C40.9,47.8,33.8,54.9,25,54.9 M48,39c0-12.7-10.3-23-23-23
		C12.3,16,2,26.3,2,39c0,12.7,10.3,23,23,23C37.7,62,48,51.7,48,39"/>
	<g>
		<defs>
			<path id="SVGID_3_" d="M2.1,39c0,12.7,10.3,22.9,22.9,22.9c12.7,0,22.9-10.3,22.9-22.9S37.7,16.1,25,16.1
				C12.3,16.1,2.1,26.3,2.1,39"/>
		</defs>
		<clipPath id="SVGID_2_">
			<use xlink:href="#SVGID_3_"  style="overflow:visible;"/>
		</clipPath>
		<path style="clip-path:url(#SVGID_2_);fill:#F7B99A;" d="M25,23.1c-8.8,0-15.9,7.1-15.9,15.9c0,3.1,0.9,6,2.4,8.4l21.9-21.9
			C31,24,28.1,23.1,25,23.1"/>
		<path style="clip-path:url(#SVGID_2_);fill:#EB615B;" d="M11.5,47.4C10,45,9.1,42.1,9.1,39c0-8.8,7.1-15.9,15.9-15.9
			c3.1,0,6,0.9,8.4,2.4L11.5,47.4z M25,16.1C12.3,16.1,2.1,26.3,2.1,39c0,6.8,3,13,7.7,17.2l31.4-33.4C37,18.6,31.3,16.1,25,16.1"/>
	</g>
</g>
</svg>
