<?xml version="1.0" encoding="utf-8"?>
<!-- Generator: Adobe Illustrator 24.3.1, SVG Export Plug-In . SVG Version: 6.00 Build 0)  -->
<svg version="1.1" id="Layer_1" xmlns="http://www.w3.org/2000/svg" xmlns:xlink="http://www.w3.org/1999/xlink" x="0px" y="0px"
	 viewBox="0 0 240 40" style="enable-background:new 0 0 240 40;" xml:space="preserve">
<style type="text/css">
	.st0{fill:#888888;}
</style>
<g>
	<path class="st0" d="M23.8,8.5c0,0,2.5-1.9,5.1-2c0,0,5.1-0.6,4.6,4.6c0,0-1.4-4.5-7.6-0.8L11,21.6l0,0c0,0-2.5,1.9-5,2
		c0,0-5.1,0.6-4.6-4.6c0,0,1.4,4.5,7.6,0.7l0,0L23.8,8.5L23.8,8.5z"/>
	<path class="st0" d="M24.1,13.9c0,0,2.5-1.9,5.1-2c0,0,5.1-0.6,4.6,4.6c0,0-1.4-4.5-7.6-0.8L11.3,27l0,0c0,0-2.5,1.9-5,2
		c0,0-5.1,0.6-4.6-4.6c0,0,1.4,4.5,7.6,0.7l0,0L24.1,13.9L24.1,13.9z"/>
	<path class="st0" d="M28,29h3.1l0.9-4.5c0.3-1.4,0.3-1.8,0.5-3.2c0.2,1.6,0.3,2,0.6,3.5l0.8,4.1h3.1l2.3-11.4h-2.8l-0.9,5.1
		c-0.2,1.3-0.3,1.6-0.4,2.9c-0.1-1.2-0.2-1.6-0.4-3l-1-5h-2.4l-0.9,5c-0.3,1.4-0.3,1.7-0.5,3c-0.1-1.3-0.2-1.6-0.4-3l-0.9-5h-2.8
		L28,29L28,29z"/>
	<path class="st0" d="M50.5,29h2.9v-4h0.9l1.8,4h3.2L57,24.4c0.4-0.2,0.8-0.4,1.2-0.9c0.7-0.8,0.7-1.9,0.7-2.3
		c0-1.1-0.4-2.6-1.6-3.3c-0.6-0.3-1.4-0.4-2.2-0.4h-4.5V29L50.5,29z M54.6,20c0.5,0,1.4,0,1.4,1.3c0,1.3-0.9,1.3-1.4,1.3h-1.2V20
		H54.6L54.6,20z"/>
	<polygon class="st0" points="70,29 77.6,29 77.6,26.6 72.9,26.6 72.9,24.3 76.9,24.3 76.9,21.8 72.9,21.8 72.9,20.1 77.2,20.1 
		77.2,17.6 70,17.6 70,29 	"/>
	<polygon class="st0" points="87.3,20.4 89.6,20.4 89.6,29 92.5,29 92.5,20.4 94.8,20.4 94.8,17.6 87.3,17.6 87.3,20.4 	"/>
	<polygon class="st0" points="95.5,29 103.1,29 103.1,26.6 98.3,26.6 98.3,24.3 102.4,24.3 102.4,21.8 98.3,21.8 98.3,20.1 
		102.7,20.1 102.7,17.6 95.5,17.6 95.5,29 	"/>
	<path class="st0" d="M104.6,29h2.9v-4h0.9l1.8,4h3.2l-2.2-4.6c0.4-0.2,0.8-0.4,1.2-0.9c0.7-0.8,0.7-1.9,0.7-2.3
		c0-1.1-0.4-2.6-1.6-3.3c-0.6-0.3-1.4-0.4-2.2-0.4h-4.5V29L104.6,29z M108.6,20c0.5,0,1.4,0,1.4,1.3c0,1.3-0.9,1.3-1.4,1.3h-1.2V20
		H108.6L108.6,20z"/>
	<path class="st0" d="M66.9,21.4c-0.5-0.8-1.2-1.3-2.1-1.3c-1.4,0-2.6,1.5-2.6,3.3c0,1.8,1.2,3.3,2.6,3.3c0.8,0,1.6-0.5,2-1.3
		l2.2,1.4c-0.9,1.5-2.5,2.6-4.3,2.6c-2.9,0-5.2-2.7-5.2-6c0-3.3,2.3-6,5.2-6c0,0,2.5-0.3,4.1,2.7L66.9,21.4L66.9,21.4z"/>
	<path class="st0" d="M78.2,27.1c0.4,0.6,0.9,1.3,2.3,1.9c0.7,0.3,1.5,0.3,2.2,0.3c0.5,0,2.4,0,3.6-1.5c0.4-0.5,0.9-1.4,0.8-2.6
		c-0.2-2.7-2.6-3-4.7-3.4c-0.8-0.2-1-0.5-1-1.1c0-0.6,0.7-1.1,1.2-1.1c0.5,0,1.2,0.1,1.8,0.4c0.4,0.3,0.5,0.4,0.7,0.6l1.7-1.7
		c-0.3-0.4-0.4-0.6-1.1-1c-0.8-0.5-1.7-0.8-2.7-0.8c-1.7,0-3.4,0.7-4,2.4c-0.2,0.5-0.3,1-0.3,1.5c0,2.4,1.8,3,2.6,3.3
		c0.4,0.1,2.1,0.4,2.5,0.6c0.5,0.2,0.5,1,0.5,1.1c-0.1,0.8-1.2,0.9-1.4,0.9c-0.5,0-0.9-0.1-1.3-0.3c-0.8-0.3-1.2-0.8-1.5-1.2
		L78.2,27.1L78.2,27.1z"/>
	<path class="st0" d="M44.4,20.1c0.3,0,1.7,0,2.2,1.6c0.2,0.5,0.2,1,0.2,1.5c0,2.1-1,3.3-2.4,3.3c-1.7,0-2.4-1.2-2.4-3.2
		C41.9,20.9,43.1,20.1,44.4,20.1L44.4,20.1z M44.4,17.2c-3.4,0-5.1,2.8-5.1,6.1c0,2.6,1.2,6,5,6c3.7,0,5.1-3.3,5.1-6.1
		C49.5,20.5,48.1,17.2,44.4,17.2L44.4,17.2z"/>
</g>
<g>
	<path class="st0" d="M143.9,8.7c-6.3,0-11.3,5.1-11.3,11.3s5.1,11.3,11.3,11.3s11.3-5.1,11.3-11.3S150.1,8.7,143.9,8.7z
		 M143.9,30.2c-5.6,0-10.2-4.6-10.2-10.2s4.6-10.2,10.2-10.2c5.6,0,10.2,4.6,10.2,10.2S149.5,30.2,143.9,30.2z"/>
	<path class="st0" d="M147.9,12.8c0,0-0.1,0-0.1,0c-0.1,0-0.3,0.1-0.3,0.3v3.5c0,0.1-0.1,0.2-0.2,0.2h-6.9c-0.1,0-0.2-0.1-0.2-0.2
		V13c0,0,0-0.1,0-0.1c-0.1-0.1-0.2-0.2-0.4-0.1c-2.5,1.6-4.1,4.3-4.1,7.3s1.5,5.7,4.1,7.3c0,0,0.1,0,0.1,0c0.1,0,0.3-0.1,0.3-0.3
		v-3.5c0-0.1,0.1-0.2,0.2-0.2h6.9c0.1,0,0.2,0.1,0.2,0.2v3.5c0,0,0,0.1,0,0.1c0.1,0.1,0.2,0.2,0.4,0.1c2.6-1.6,4.1-4.3,4.1-7.3
		S150.5,14.3,147.9,12.8L147.9,12.8z M138.9,24.5l0,0.4l-0.3-0.3c-2.1-2.7-2.1-6.4,0-9.1l0.2-0.3l0,0l0,0.4c0,0.3,0,0.7,0,1.1v6.7
		C138.9,23.8,138.9,24.1,138.9,24.5z M147.5,21.7c0,0.1-0.1,0.2-0.2,0.2h-6.9c-0.1,0-0.2-0.1-0.2-0.2v-3.4c0-0.1,0.1-0.2,0.2-0.2
		h6.9c0.1,0,0.2,0.1,0.2,0.2V21.7z M149.1,24.6l-0.3,0.3l0-0.4c0-0.3,0-0.7,0-1.1v-6.7c0-0.4,0-0.7,0-1.1l0-0.2l0-0.2v0l0.3,0.3
		c1,1.3,1.6,2.9,1.6,4.5C150.7,21.7,150.1,23.3,149.1,24.6z"/>
	<g>
		<path class="st0" d="M172.3,19.8c-0.1,0-0.1,0-0.1-0.1c0,0,0-0.1,0.1-0.1c0.1,0,2.2-0.8,2.2-3.4c0-2.8-1.9-4.5-5.1-4.5h-7.8v16.7
			h8.5c2.5,0,5.2-1.8,5.2-4.6C175.2,21.1,173.2,20.1,172.3,19.8L172.3,19.8z M165.5,15.1c0-0.1,0-0.1,0.1-0.1h3.1
			c1,0,1.7,0.7,1.7,1.7c0,0.8-0.6,1.7-1.8,1.7h-3c-0.1,0-0.1,0-0.1-0.1V15.1z M168.7,25.1h-3.1c-0.1,0-0.1,0-0.1-0.1v-3.3
			c0-0.1,0-0.1,0.1-0.1h3c1.5,0,2.3,0.6,2.3,1.8C171,24.5,170.2,25.1,168.7,25.1L168.7,25.1z M201.6,18.3l-0.6-0.1
			c-1.3-0.3-2.7-0.6-2.7-1.8s1.1-1.7,2.2-1.7c1.3,0,2.5,0.6,3.5,1.5l2.5-2.4c-1.1-1.2-2.9-2.5-6-2.5c-3.7,0-6.1,2.1-6.1,5.2
			c0,3.3,2.6,4.5,4.8,5l0.6,0.1c2.1,0.4,3.1,0.8,3.1,2c0,1.1-1,1.8-2.4,1.8c-1.7,0-3.2-0.7-4.3-2.1l-2.5,2.5c1.3,1.6,3.1,3,6.9,3
			c3.2,0,6.4-1.8,6.4-5.4C206.8,19.7,204.4,18.9,201.6,18.3L201.6,18.3z M234.5,11.7v6.1c0,0.1,0,0.1-0.1,0.1h-5.1
			c-0.1,0-0.1,0-0.1-0.1v-6.1H225v16.7h4.2v-6.5c0-0.1,0-0.1,0.1-0.1h5.1c0.1,0,0.1,0,0.1,0.1v6.5h4.2V11.7H234.5z M216.5,25
			c-1.9,0-3.9-1.6-3.9-5c0-3.2,1.9-4.8,3.8-4.8c1.4,0,2.3,0.6,3.1,1.8l3.2-2.1c-1.6-2.4-3.6-3.5-6.3-3.5c-5.4,0-7.8,4.3-7.8,8.6
			c0,5.2,3.2,8.8,7.7,8.8c3.4,0,4.9-1.2,6.5-3.5l-3.2-2.2C218.9,24.2,218.1,25,216.5,25L216.5,25z M184.7,11.3
			c-4.6,0-7.7,3.5-7.7,8.7s3.1,8.7,7.7,8.7c4.6,0,7.7-3.5,7.7-8.7S189.3,11.3,184.7,11.3L184.7,11.3z M184.7,25
			c-2.2,0-3.7-1.9-3.7-4.9c0-3,1.4-4.9,3.7-4.9c2.3,0,3.7,1.9,3.7,4.9C188.4,23,186.9,25,184.7,25z"/>
	</g>
</g>
</svg>
