<?xml version="1.0" encoding="utf-8"?>
<!-- Generator: Adobe Illustrator 24.3.1, SVG Export Plug-In . SVG Version: 6.00 Build 0)  -->
<svg version="1.1" id="Layer_1" xmlns="http://www.w3.org/2000/svg" xmlns:xlink="http://www.w3.org/1999/xlink" x="0px" y="0px"
	 viewBox="0 0 50 78" style="enable-background:new 0 0 50 78;" xml:space="preserve">
<style type="text/css">
	.st0{fill:#ED7068;}
	.st1{clip-path:url(#SVGID_2_);fill:#FCD7B6;}
	.st2{clip-path:url(#SVGID_2_);fill:#EB614D;}
	.st3{clip-path:url(#SVGID_2_);fill:#F7B781;}
	.st4{fill:#EB614D;}
	.st5{fill:#E9523A;}
	.st6{fill:#FCD7B6;}
	.st7{clip-path:url(#SVGID_4_);fill:#F7B99A;}
	.st8{clip-path:url(#SVGID_4_);fill:#EB615B;}
	.st9{fill:#FCF9DD;}
	.st10{fill:#184F78;}
	.st11{fill:#4B698D;}
	.st12{fill:#00AFB8;}
	.st13{clip-path:url(#SVGID_6_);fill:#FFF5ED;}
	.st14{fill:#EC6D62;}
	.st15{fill:#FBF0CD;}
	.st16{fill:#1D4D71;}
	.st17{fill:#4D6584;}
	.st18{fill:#1DA9AC;}
	.st19{fill:#FCD8B6;}
	.st20{clip-path:url(#SVGID_8_);fill:#FDECDC;}
	.st21{clip-path:url(#SVGID_8_);fill:#FAE7BE;}
	.st22{clip-path:url(#SVGID_8_);fill:#EC6A5B;}
	.st23{clip-path:url(#SVGID_8_);fill:#FAC99D;}
	.st24{clip-path:url(#SVGID_8_);fill:#214B6B;}
	.st25{clip-path:url(#SVGID_8_);fill:#FAC89D;}
</style>
<g>
	<path class="st0" d="M7.1,11.8c-2.8,0-5.1,2.3-5.1,5.1v49.6c0,2.8,2.3,5.1,5.1,5.1h35.8c2.8,0,5.1-2.3,5.1-5.1V16.9
		c0-2.8-2.3-5.1-5.1-5.1H7.1z"/>
	<path class="st9" d="M6.7,16.3c-0.7,0-1.3,0.6-1.3,1.3v48.3c0,0.7,0.6,1.3,1.3,1.3h36.5c0.7,0,1.3-0.6,1.3-1.3V17.5
		c0-0.7-0.6-1.3-1.3-1.3H6.7z"/>
	<path class="st10" d="M14.5,9.7c-0.7,0-1.3,0.6-1.3,1.3v6.1c0,0.7,0.6,1.3,1.3,1.3h21c0.7,0,1.3-0.6,1.3-1.3V11
		c0-0.7-0.6-1.3-1.3-1.3H14.5z"/>
	<path class="st10" d="M25,16.6c2.8,0,5.1-2.3,5.1-5.1S27.8,6.4,25,6.4c-2.8,0-5.1,2.3-5.1,5.1S22.2,16.6,25,16.6"/>
	<path class="st11" d="M16.6,12.8c-0.7,0-1.3,0.6-1.3,1.3c0,0.7,0.6,1.3,1.3,1.3h16.9c0.7,0,1.3-0.6,1.3-1.3c0-0.7-0.6-1.3-1.3-1.3
		H16.6z"/>
	<path class="st0" d="M23.8,27.6c-0.7,0-1.3,0.6-1.3,1.3c0,0.7,0.6,1.3,1.3,1.3h15.3c0.7,0,1.3-0.6,1.3-1.3c0-0.7-0.6-1.3-1.3-1.3
		H23.8z"/>
	<path class="st12" d="M12.6,30.7c-0.7,0.7-0.7,1.9,0,2.6c0.7,0.7,1.9,0.7,2.6,0l5.2-5.2c0.7-0.7,0.7-1.9,0-2.6
		c-0.7-0.7-1.9-0.7-2.6,0L12.6,30.7z"/>
	<path class="st12" d="M14.9,31.1c0.7,0.7,0.7,1.9,0,2.6c-0.7,0.7-1.9,0.7-2.6,0l-2.1-2.1c-0.7-0.7-0.7-1.9,0-2.6
		c0.7-0.7,1.9-0.7,2.6,0L14.9,31.1z"/>
	<path class="st12" d="M12.6,46.3c-0.7,0.7-0.7,1.9,0,2.6c0.7,0.7,1.9,0.7,2.6,0l5.2-5.2c0.7-0.7,0.7-1.9,0-2.6
		c-0.7-0.7-1.9-0.7-2.6,0L12.6,46.3z"/>
	<path class="st12" d="M14.9,46.7c0.7,0.7,0.7,1.9,0,2.6c-0.7,0.7-1.9,0.7-2.6,0l-2.1-2.1c-0.7-0.7-0.7-1.9,0-2.6
		c0.7-0.7,1.9-0.7,2.6,0L14.9,46.7z"/>
	<path class="st12" d="M12.6,59.5c-0.7,0.7-0.7,1.9,0,2.6c0.7,0.7,1.9,0.7,2.6,0l5.2-5.2c0.7-0.7,0.7-1.9,0-2.6
		c-0.7-0.7-1.9-0.7-2.6,0L12.6,59.5z"/>
	<path class="st12" d="M14.9,59.8c0.7,0.7,0.7,1.9,0,2.6c-0.7,0.7-1.9,0.7-2.6,0l-2.1-2.1c-0.7-0.7-0.7-1.9,0-2.6
		c0.7-0.7,1.9-0.7,2.6,0L14.9,59.8z"/>
	<path class="st0" d="M23.8,41.4c-0.7,0-1.3,0.6-1.3,1.3c0,0.7,0.6,1.3,1.3,1.3h15.3c0.7,0,1.3-0.6,1.3-1.3c0-0.7-0.6-1.3-1.3-1.3
		H23.8z"/>
	<path class="st0" d="M23.8,55.2c-0.7,0-1.3,0.6-1.3,1.3c0,0.7,0.6,1.3,1.3,1.3h15.3c0.7,0,1.3-0.6,1.3-1.3c0-0.7-0.6-1.3-1.3-1.3
		H23.8z"/>
	<path class="st0" d="M23.8,32c-0.7,0-1.3,0.6-1.3,1.3c0,0.7,0.6,1.3,1.3,1.3h10.2c0.7,0,1.3-0.6,1.3-1.3c0-0.7-0.6-1.3-1.3-1.3
		H23.8z"/>
	<path class="st0" d="M23.8,45.8c-0.7,0-1.3,0.6-1.3,1.3c0,0.7,0.6,1.3,1.3,1.3h10.2c0.7,0,1.3-0.6,1.3-1.3c0-0.7-0.6-1.3-1.3-1.3
		H23.8z"/>
	<path class="st0" d="M23.8,59.6c-0.7,0-1.3,0.6-1.3,1.3c0,0.7,0.6,1.3,1.3,1.3h10.2c0.7,0,1.3-0.6,1.3-1.3c0-0.7-0.6-1.3-1.3-1.3
		H23.8z"/>
	<path class="st11" d="M24.9,10.8c0.5,0,0.9-0.4,0.9-0.9S25.4,9,24.9,9C24.4,9,24,9.4,24,9.9S24.4,10.8,24.9,10.8"/>
	<g>
		<defs>
			<path id="SVGID_5_" d="M2.4,68.5c-0.3-0.6-0.4-1.3-0.4-2C2,67.4,2.1,68.1,2.4,68.5 M7.1,11.5c-2.8,0-5.1,2.3-5.1,5.1v0.3
				c0-2.8,2.3-5.1,5.1-5.1h6.1v-0.3H7.1z M36.8,11.5v0.3h6.1c0.9,0,1.8,0.2,2.5,0.7c-0.4-0.6-1.3-0.9-2.5-0.9H36.8z"/>
		</defs>
		<clipPath id="SVGID_2_">
			<use xlink:href="#SVGID_5_"  style="overflow:visible;"/>
		</clipPath>
		<rect x="2" y="11.5" style="clip-path:url(#SVGID_2_);fill:#FFF5ED;" width="43.4" height="56.9"/>
	</g>
	<path class="st14" d="M13.2,11.8H7.1c-2.8,0-5.1,2.3-5.1,5.1v49.6c0,0.7,0.1,1.4,0.4,2c0.2,0.3,0.5,0.5,0.8,0.5
		c0.5,0,1.2-0.5,1.9-1.4l0.7-0.9c-0.2-0.2-0.3-0.5-0.3-0.8V17.5c0-0.7,0.6-1.3,1.3-1.3h6.5V11.8z M42.9,11.8h-6.1v4.5h6.5
		c0.3,0,0.6,0.1,0.8,0.3l0.8-1c1-1.3,1.1-2.4,0.5-3.1C44.7,12,43.8,11.8,42.9,11.8"/>
	<path class="st15" d="M13.5,45.4l4.3-4.3c0.4-0.4,0.8-0.5,1.3-0.5c0.5,0,1,0.2,1.3,0.5c0.7,0.7,0.7,1.9,0,2.6l-5.2,5.2
		c-0.1,0.1-0.1,0.1-0.2,0.2c-0.1,0.1-0.1,0.1-0.2,0.2c-0.4,0.4-0.8,0.5-1.3,0.5c-0.5,0-1-0.2-1.3-0.5l-2.1-2.1
		c-0.7-0.7-0.7-1.9,0-2.6c0.4-0.4,0.8-0.5,1.3-0.5c0.5,0,1,0.2,1.3,0.5L13.5,45.4z M13.5,29.8l4.3-4.3c0.4-0.4,0.8-0.5,1.3-0.5
		c0.5,0,1,0.2,1.3,0.5c0.7,0.7,0.7,1.9,0,2.6l-5.2,5.2c-0.1,0.1-0.1,0.1-0.2,0.2c-0.1,0.1-0.1,0.1-0.2,0.2c-0.4,0.4-0.8,0.5-1.3,0.5
		c-0.5,0-1-0.2-1.3-0.5l-2.1-2.1c-0.7-0.7-0.7-1.9,0-2.6c0.4-0.4,0.8-0.5,1.3-0.5c0.5,0,1,0.2,1.3,0.5L13.5,29.8 M43.3,16.3h-6.5
		v0.9c0,0.7-0.6,1.3-1.3,1.3h-21c-0.7,0-1.3-0.6-1.3-1.3v-0.9H6.7c-0.7,0-1.3,0.6-1.3,1.3v48.3c0,0.3,0.1,0.6,0.3,0.8l4.6-6
		l-0.3-0.3c-0.7-0.7-0.7-1.9,0-2.6c0.4-0.4,0.8-0.5,1.3-0.5c0.4,0,0.9,0.2,1.2,0.5l10.6-13.8c-0.4-0.2-0.7-0.6-0.7-1.1
		c0-0.7,0.6-1.3,1.3-1.3h1.3l5.3-6.9h-6.6c-0.7,0-1.3-0.6-1.3-1.3c0-0.7,0.6-1.3,1.3-1.3h8.5l1.4-1.8h-9.9c-0.7,0-1.3-0.6-1.3-1.3
		c0-0.7,0.6-1.3,1.3-1.3h11.8l8.5-11C43.9,16.4,43.6,16.3,43.3,16.3"/>
	<path class="st16" d="M36.8,11.5h-6.6c0,0.4-0.1,0.9-0.2,1.3h3.5c0.7,0,1.3,0.6,1.3,1.3c0,0.7-0.6,1.3-1.3,1.3h-5.1
		c-0.9,0.8-2.1,1.3-3.4,1.3c-1.3,0-2.5-0.5-3.4-1.3h-5.1c-0.7,0-1.3-0.6-1.3-1.3c0-0.7,0.6-1.3,1.3-1.3h3.5
		c-0.1-0.4-0.2-0.8-0.2-1.3h-6.6v0.3v4.5v0.9c0,0.7,0.6,1.3,1.3,1.3h21c0.7,0,1.3-0.6,1.3-1.3v-0.9v-4.5V11.5z"/>
	<path class="st16" d="M28.4,15.4h-6.8c0.9,0.8,2.1,1.3,3.4,1.3C26.3,16.6,27.5,16.2,28.4,15.4 M30.1,11.5H19.9
		c0,0.4,0.1,0.9,0.2,1.3H30C30.1,12.4,30.1,12,30.1,11.5"/>
	<path class="st17" d="M33.4,12.8H30h-9.9h-3.5c-0.7,0-1.3,0.6-1.3,1.3c0,0.7,0.6,1.3,1.3,1.3h5.1h6.8h5.1c0.7,0,1.3-0.6,1.3-1.3
		C34.7,13.4,34.1,12.8,33.4,12.8"/>
	<path class="st14" d="M35.7,27.6H23.8c-0.7,0-1.3,0.6-1.3,1.3c0,0.7,0.6,1.3,1.3,1.3h9.9L35.7,27.6z"/>
	<path class="st18" d="M19.1,24.9c-0.5,0-1,0.2-1.3,0.5l-4.3,4.3l1.3,1.3c0.7,0.7,0.7,1.7,0.2,2.4c0.1-0.1,0.1-0.1,0.2-0.2l5.2-5.2
		c0.7-0.7,0.7-1.9,0-2.6C20.1,25.1,19.6,24.9,19.1,24.9"/>
	<path class="st18" d="M11.4,28.4c-0.5,0-1,0.2-1.3,0.5c-0.7,0.7-0.7,1.9,0,2.6l2.1,2.1c0.4,0.4,0.8,0.5,1.3,0.5
		c0.5,0,1-0.2,1.3-0.5c0.1-0.1,0.1-0.1,0.2-0.2c0.5-0.7,0.5-1.8-0.2-2.4l-1.3-1.3L12.7,29C12.4,28.6,11.9,28.4,11.4,28.4"/>
	<path class="st18" d="M19.1,40.5c-0.5,0-1,0.2-1.3,0.5l-4.3,4.3l1.3,1.3c0.7,0.7,0.7,1.7,0.2,2.4c0.1-0.1,0.1-0.1,0.2-0.2l5.2-5.2
		c0.7-0.7,0.7-1.9,0-2.6C20.1,40.7,19.6,40.5,19.1,40.5"/>
	<path class="st18" d="M11.4,44c-0.5,0-1,0.2-1.3,0.5c-0.7,0.7-0.7,1.9,0,2.6l2.1,2.1c0.4,0.4,0.8,0.5,1.3,0.5c0.5,0,1-0.2,1.3-0.5
		c0.1-0.1,0.1-0.1,0.2-0.2c0.5-0.7,0.5-1.8-0.2-2.4l-1.3-1.3l-0.8-0.8C12.4,44.2,11.9,44,11.4,44"/>
	<path class="st18" d="M11.4,57.2c-0.5,0-1,0.2-1.3,0.5c-0.7,0.7-0.7,1.9,0,2.6l0.3,0.3l2.3-3C12.3,57.3,11.9,57.2,11.4,57.2"/>
	<path class="st14" d="M25.1,41.4h-1.3c-0.7,0-1.3,0.6-1.3,1.3c0,0.5,0.3,0.9,0.7,1.1L25.1,41.4z"/>
	<path class="st14" d="M32.3,32h-8.5c-0.7,0-1.3,0.6-1.3,1.3c0,0.7,0.6,1.3,1.3,1.3h6.6L32.3,32z"/>
</g>
</svg>
