<?xml version="1.0" encoding="utf-8"?>
<!-- Generator: Adobe Illustrator 24.3.1, SVG Export Plug-In . SVG Version: 6.00 Build 0)  -->
<svg version="1.1" id="Layer_1" xmlns="http://www.w3.org/2000/svg" xmlns:xlink="http://www.w3.org/1999/xlink" x="0px" y="0px"
	 viewBox="0 0 50 78" style="enable-background:new 0 0 50 78;" xml:space="preserve">
<style type="text/css">
	.st0{fill:#ED7068;}
	.st1{clip-path:url(#SVGID_2_);fill:#FCD7B6;}
	.st2{clip-path:url(#SVGID_2_);fill:#EB614D;}
	.st3{clip-path:url(#SVGID_2_);fill:#F7B781;}
	.st4{fill:#EB614D;}
	.st5{fill:#E9523A;}
	.st6{fill:#FCD7B6;}
	.st7{clip-path:url(#SVGID_4_);fill:#F7B99A;}
	.st8{clip-path:url(#SVGID_4_);fill:#EB615B;}
	.st9{fill:#FCF9DD;}
	.st10{fill:#184F78;}
	.st11{fill:#4B698D;}
	.st12{fill:#00AFB8;}
	.st13{clip-path:url(#SVGID_6_);fill:#FFF5ED;}
	.st14{fill:#EC6D62;}
	.st15{fill:#FBF0CD;}
	.st16{fill:#1D4D71;}
	.st17{fill:#4D6584;}
	.st18{fill:#1DA9AC;}
	.st19{fill:#FCD8B6;}
	.st20{clip-path:url(#SVGID_8_);fill:#FDECDC;}
	.st21{clip-path:url(#SVGID_8_);fill:#FAE7BE;}
	.st22{clip-path:url(#SVGID_8_);fill:#EC6A5B;}
	.st23{clip-path:url(#SVGID_8_);fill:#FAC99D;}
	.st24{clip-path:url(#SVGID_8_);fill:#214B6B;}
	.st25{clip-path:url(#SVGID_8_);fill:#FAC89D;}
</style>
<g>
	<path class="st0" d="M29.3,54.6C27.9,55.1,26.5,55,25,55c-1.4,0-2.9,0.1-4.3-0.5c-2.4-1-4-2.8-4.4-5.5c-0.7-3.8,2-7.3,5.4-8
		c0.8-0.2,1.6-0.2,2.4-0.2c0.3,0,0.6,0,0.8,0c0.3,0,0.7,0,1,0c1,0,1.9,0,2.9,0.3c2.6,0.9,4.2,2.6,4.8,5.3
		C34.5,50,32.6,53.3,29.3,54.6 M32.1,37.3c0,1-0.7,1.7-1.8,1.8c-0.9,0-1.7-0.8-1.7-1.7c0-1,0.7-1.8,1.7-1.8
		C31.3,35.6,32,36.2,32.1,37.3 M21.5,37.4c-0.1,1.1-0.7,1.7-1.8,1.7c-0.9,0-1.7-0.8-1.7-1.7c0-1,0.8-1.8,1.7-1.8
		C20.6,35.6,21.6,36.4,21.5,37.4 M47.9,40.3c-0.3-2.6-1.1-5-2.4-7.2c-1.3,0.6-2.6,0.8-4,0.7c-0.4,0-0.8,0-1.2,0
		c-0.8,0-1.7,0-2.5-0.2c-2-0.6-3.3-1.9-3.7-4c-0.3-1.9-0.1-3.7-0.1-5.6c-0.2,0-0.4,0-0.6-0.1c-1.9-0.6-3.9-0.7-6-0.7
		c-0.4,0-0.5,0.1-0.5,0.5c0,1.3,0,2.6,0,3.9c0,0.5-0.1,1-0.2,1.5c-0.1,0.8-0.8,1.1-1.6,1.2c-1.1-0.1-1.8-0.8-1.8-1.9
		c0-1.6,0-3.2,0-4.8c0-0.2,0.1-0.5-0.3-0.5c-1.2,0.1-2.5,0-3.7,0.2c-1.1,0.1-2.2,0.3-3.2,0.5c0.2,1.4,0,2.9,0.1,4.3
		c0,0.6-0.1,1.1-0.2,1.7c-0.6,2.2-2.6,3.8-4.9,3.9c-1.3,0-2.6,0-3.9,0c-0.9,0-1.7-0.4-2.6-0.7c-1.4,2.5-2.3,5.1-2.5,7.9
		C1.9,43,2,45,2.5,46.9c0.4,1.6,1,3.2,1.7,4.7c1,1.9,2.2,3.7,2.8,5.8c0.2,0.7,0.6,1.5,0.9,2.2C8.7,62,9,64.4,9.1,66.9
		c0,1,0.4,1.7,1.2,2.3h4.9c0.8-0.2,1.5-0.5,2.2-0.9c1.5-1,2.2-2.5,2.3-4.3c0.1-1.1,0.7-1.8,1.9-1.8c1.1,0,2.3,0,3.4,0c1,0,2,0.1,3,0
		c1.2-0.2,2.3,0.6,2.3,1.9c-0.1,2.3,1.9,4.7,4.2,5.1l0.1,0.1h5.1c0.7-0.3,1.2-0.8,1.3-1.6c0.1-0.8,0.1-1.6,0.1-2.5
		c0.1-0.7,0.2-1.5,0.3-2.2c0.2-1.6,0.8-3.2,1.3-4.7c0.8-2.2,1.9-4.2,3-6.3C47.6,48.2,48.3,44.4,47.9,40.3"/>
	<path class="st19" d="M16.1,23.9c0.2,1.4,0.1,2.9,0.1,4.3c0,0.6-0.1,1.1-0.2,1.7c-0.6,2.2-2.6,3.8-4.9,3.9c-1.3,0-2.6,0-3.9,0
		c-0.9,0-1.7-0.4-2.6-0.7c-0.8-0.6-1.5-1.3-2-2.2c-0.6-1.2-0.8-2.3-0.5-3.6C2.5,26,3.3,25,4.2,24c1.1-1.3,2.4-2.5,3.8-3.5
		c1.8-1.3,4.2-1.1,5.9,0c1.1,0.7,1.7,1.8,2.1,3.1C16,23.7,16.1,23.8,16.1,23.9"/>
	<path class="st19" d="M45.5,33.1c-1.3,0.6-2.6,0.8-4,0.7c-0.4,0-0.8,0-1.2,0c-0.8,0-1.7,0-2.5-0.2c-2-0.6-3.3-1.9-3.7-4
		c-0.3-1.9-0.1-3.7-0.1-5.6c0.3-0.9,0.6-1.7,1.2-2.4c0.6-0.8,1.4-1.2,2.3-1.6c0.8-0.3,1.6-0.3,2.5-0.2c1.2,0.1,2,0.7,2.8,1.4
		c1.4,1.1,2.6,2.4,3.8,3.8c2,2.3,1.8,5.4-0.2,7.4C46.1,32.6,45.7,32.7,45.5,33.1"/>
	<path class="st9" d="M23.3,14.1c-0.1-1.1,0-2.3,0-3.6c-0.1-0.8,0.8-1.6,1.8-1.6c0.9,0,1.7,0.7,1.8,1.6c0,2.5,0,5.1,0,7.6
		c0,0.9-0.9,1.6-1.8,1.6c-1,0-1.7-0.7-1.7-1.7C23.3,16.8,23.3,15.5,23.3,14.1"/>
	<path class="st10" d="M18,37.4c0-1,0.8-1.8,1.7-1.8c1,0,1.9,0.8,1.8,1.8c-0.1,1.1-0.7,1.7-1.8,1.7C18.8,39.2,18,38.3,18,37.4"/>
	<path class="st6" d="M33.7,46.5c-0.6-2.7-2.2-4.4-4.8-5.3c-0.9-0.3-1.9-0.3-2.9-0.3c-0.3,0-0.7,0-1,0c-0.3,0-0.6,0-0.8,0
		c-0.8,0-1.6,0-2.4,0.2c-3.5,0.7-6.1,4.2-5.4,8c0.5,2.7,2,4.4,4.4,5.5c1.4,0.6,2.8,0.5,4.3,0.5c1.4,0,2.8,0.1,4.2-0.4
		C32.6,53.3,34.5,50,33.7,46.5"/>
	<path class="st10" d="M28.6,37.4c0-1,0.7-1.8,1.7-1.8c1.1,0,1.8,0.6,1.8,1.7c0,1-0.7,1.7-1.8,1.8C29.3,39.2,28.6,38.3,28.6,37.4"/>
	<g>
		<defs>
			<path id="SVGID_7_" d="M19.7,35.6L19.7,35.6c-0.9,0-1.7,0.8-1.7,1.8C18,36.4,18.7,35.6,19.7,35.6 M16.2,27.2c0,0.1,0,0.3,0,0.4
				C16.2,27.4,16.2,27.3,16.2,27.2 M8,20.6c-1.4,1-2.6,2.2-3.8,3.5c-0.8,1-1.7,1.9-2,3.2c-0.3,1.3-0.1,2.4,0.5,3.6
				c0.5,0.9,1.2,1.6,2,2.2c-1.4,2.5-2.3,5.1-2.5,7.9C1.9,43,2,45,2.5,46.9c0.4,1.6,1,3.2,1.7,4.7c1,1.9,2.2,3.7,2.8,5.8
				c0.2,0.7,0.5,1.4,0.8,2l20.8-21.6c0-0.1-0.1-0.3-0.1-0.4c0-1,0.7-1.8,1.6-1.8c-0.9,0-1.6,0.8-1.6,1.8c0,0.1,0,0.3,0.1,0.4
				L43.8,22c-0.3-0.3-0.7-0.6-1-0.9c-0.8-0.6-1.7-1.3-2.8-1.4c-0.9-0.1-1.7-0.1-2.5,0.2c-0.9,0.4-1.7,0.8-2.3,1.6
				c-0.6,0.7-0.9,1.6-1.2,2.4c0,1.5-0.1,2.9,0,4.4c-0.1-1.5,0.1-2.9,0-4.4c-0.2,0-0.4,0-0.6-0.1c-1.9-0.6-3.9-0.7-6-0.7
				c-0.4,0-0.5,0.1-0.5,0.5c0,1.3,0,2.6,0,3.9c0,0.5-0.1,1-0.2,1.5c-0.1,0.8-0.8,1.1-1.6,1.2c-1.1-0.1-1.8-0.8-1.8-1.9
				c0-1.6,0-3.2,0-4.8c0-0.2,0.1-0.5-0.3-0.5c-1.2,0.1-2.5,0-3.7,0.2c-1.1,0.1-2.2,0.3-3.2,0.5c0-0.1-0.1-0.2-0.1-0.3
				c-0.4-1.2-1-2.3-2.1-3.1c-0.9-0.6-2-0.9-3.1-0.9C9.8,19.7,8.8,20,8,20.6 M23.6,9.5c-0.2,0.3-0.4,0.6-0.4,1c0.1,1.3,0,2.5,0,3.6
				c0,1.4,0,2.7,0,4c0,0.9,0.8,1.7,1.7,1.7c0.9,0,1.8-0.7,1.8-1.6c0-2.5,0-5.1,0-7.6c0-0.3-0.1-0.7-0.3-0.9H23.6z"/>
		</defs>
		<clipPath id="SVGID_2_">
			<use xlink:href="#SVGID_7_"  style="overflow:visible;"/>
		</clipPath>
		<path style="clip-path:url(#SVGID_2_);fill:#FDECDC;" d="M25.1,19.7 M25,19.7L25,19.7 M26.5,19c-0.3,0.4-0.8,0.7-1.4,0.7
			C25.6,19.7,26.1,19.4,26.5,19 M23.3,13.2c0,0.3,0,0.6,0,0.8c0,0.9,0,1.8,0,2.6c0-0.8,0-1.7,0-2.6C23.3,13.8,23.3,13.5,23.3,13.2
			 M26.8,10.5L26.8,10.5c0,2.4,0,4.8,0,7.3C26.8,15.3,26.8,12.9,26.8,10.5 M23.6,9.5L23.6,9.5c-0.2,0.3-0.4,0.6-0.4,0.9
			C23.2,10.1,23.4,9.8,23.6,9.5"/>
		<path style="clip-path:url(#SVGID_2_);fill:#FAE7BE;" d="M26.5,9.5h-2.9c-0.2,0.3-0.4,0.6-0.4,0.9c0,0,0,0.1,0,0.1
			c0.1,0.9,0,1.9,0,2.7c0,0.3,0,0.6,0,0.8c0,0.9,0,1.8,0,2.6c0,0.4,0,0.9,0,1.3c0,0.9,0.8,1.7,1.7,1.7c0,0,0,0,0,0c0,0,0,0,0,0
			c0,0,0,0,0,0c0.5,0,1.1-0.3,1.4-0.7c0.2-0.3,0.3-0.6,0.3-0.9c0-0.1,0-0.3,0-0.4c0-2.4,0-4.8,0-7.3C26.8,10.1,26.7,9.8,26.5,9.5"/>
		<path style="clip-path:url(#SVGID_2_);fill:#FDECDC;" d="M21.8,41C21.8,41,21.8,41,21.8,41C21.8,41,21.8,41,21.8,41 M25.2,40.9
			c0.1,0,0.2,0,0.3,0c0.1,0,0.1,0,0.2,0c-0.1,0-0.1,0-0.2,0C25.4,40.9,25.3,40.9,25.2,40.9 M24.8,40.9
			C24.8,40.9,24.8,40.9,24.8,40.9C24.8,40.9,24.8,40.9,24.8,40.9 M24.9,40.9C24.9,40.9,24.9,40.9,24.9,40.9
			C24.9,40.9,24.9,40.9,24.9,40.9 M25.1,40.9C25.1,40.9,25.1,40.9,25.1,40.9C25.1,40.9,25.1,40.9,25.1,40.9 M25,40.9
			C25,40.9,25,40.9,25,40.9C25,40.9,25,40.9,25,40.9 M25,40.9C25,40.9,25,40.9,25,40.9C25,40.9,25,40.9,25,40.9 M25,40.9
			C25.1,40.9,25.1,40.9,25,40.9C25.1,40.9,25.1,40.9,25,40.9 M18,37.4c0,0.9,0.8,1.7,1.7,1.7C18.7,39.1,18,38.3,18,37.4
			C18,37.4,18,37.4,18,37.4L18,37.4 M18,37.4C18,37.4,18,37.4,18,37.4C18,37.4,18,37.4,18,37.4C18,37.4,18,37.4,18,37.4
			C18,37.4,18,37.4,18,37.4C18,37.4,18,37.4,18,37.4 M30.2,35.6c-0.9,0-1.6,0.8-1.6,1.8C28.6,36.4,29.3,35.6,30.2,35.6
			C30.2,35.6,30.2,35.6,30.2,35.6c0.2,0,0.4,0,0.5,0.1C30.6,35.6,30.4,35.6,30.2,35.6C30.3,35.6,30.3,35.6,30.2,35.6
			C30.2,35.6,30.2,35.6,30.2,35.6 M19.7,35.6C19.7,35.6,19.7,35.6,19.7,35.6c-0.4,0-0.7,0.1-1,0.3C18.9,35.7,19.3,35.6,19.7,35.6
			C19.7,35.6,19.7,35.6,19.7,35.6c0.7,0,1.3,0.4,1.6,0.9C21,36,20.3,35.6,19.7,35.6 M33.8,27.2c0,0.8,0,1.6,0.2,2.3
			c0.1,0.7,0.4,1.3,0.7,1.9c-0.3-0.5-0.6-1.2-0.7-1.9c0-0.2-0.1-0.3-0.1-0.5c0,0,0-0.1,0-0.1c0-0.1,0-0.3,0-0.4
			C33.8,28.1,33.8,27.7,33.8,27.2 M23.3,26.9c0,0.5,0,1,0,1.5c0,1.1,0.7,1.8,1.8,1.9c0.7-0.2,1.5-0.5,1.6-1.2c0.1-0.5,0.2-1,0.2-1.5
			c0,0.5-0.1,1-0.2,1.5c-0.1,0.8-0.8,1.1-1.6,1.2c-1.1-0.1-1.8-0.8-1.8-1.9C23.3,27.9,23.3,27.4,23.3,26.9 M23.3,23.7L23.3,23.7
			c0,0.7,0,1.4,0,2.1C23.3,25.1,23.3,24.4,23.3,23.7L23.3,23.7 M27.3,23.2C27.3,23.2,27.3,23.2,27.3,23.2c-0.4,0-0.6,0.1-0.6,0.5
			C26.8,23.3,26.9,23.2,27.3,23.2C27.3,23.2,27.3,23.2,27.3,23.2c2,0,4,0.1,5.9,0.7c0.2,0.1,0.4,0,0.6,0.1c0,0.1,0,0.3,0,0.4
			c0-0.1,0-0.3,0-0.4c-0.2,0-0.4,0-0.6-0.1C31.3,23.3,29.3,23.2,27.3,23.2 M13.8,20.6C13.8,20.6,13.9,20.6,13.8,20.6
			c1.2,0.8,1.8,1.9,2.2,3.1c0,0.1,0.1,0.2,0.1,0.3c1.1-0.2,2.1-0.4,3.2-0.5c1.2-0.1,2.4-0.1,3.7-0.2c0,0,0,0,0,0
			c0.2,0,0.3,0.1,0.3,0.3c0-0.1,0-0.3-0.3-0.3c0,0,0,0,0,0c-1.2,0.1-2.5,0-3.7,0.2c-1.1,0.1-2.2,0.3-3.2,0.5c0-0.1-0.1-0.2-0.1-0.3
			C15.6,22.4,15,21.3,13.8,20.6C13.9,20.6,13.8,20.6,13.8,20.6 M37.5,19.9C37.5,19.9,37.5,19.9,37.5,19.9c-1,0.4-1.8,0.8-2.4,1.6
			c-0.6,0.7-0.9,1.6-1.2,2.4c0.3-0.9,0.6-1.7,1.2-2.4C35.8,20.7,36.6,20.3,37.5,19.9C37.5,19.9,37.5,19.9,37.5,19.9 M38.9,19.7
			c-0.5,0-0.9,0.1-1.3,0.2C38,19.7,38.4,19.7,38.9,19.7c0.4,0,0.7,0,1.1,0.1c0,0,0,0,0.1,0c0,0,0,0-0.1,0
			C39.6,19.7,39.2,19.7,38.9,19.7 M10.8,19.7c-1,0-2,0.3-2.8,0.9C8.9,20,9.8,19.7,10.8,19.7 M10.8,19.7L10.8,19.7
			C10.8,19.7,10.8,19.7,10.8,19.7C10.8,19.7,10.8,19.7,10.8,19.7"/>
		<path style="clip-path:url(#SVGID_2_);fill:#EC6A5B;" d="M19.7,35.6C19.7,35.6,19.7,35.6,19.7,35.6c0.7,0,1.3,0.4,1.6,0.9
			c0.2,0.3,0.2,0.6,0.2,0.9c-0.1,0.9-0.6,1.5-1.4,1.7c-0.1,0-0.2,0-0.4,0c0,0,0,0-0.1,0c-0.9,0-1.6-0.8-1.7-1.7v0c0,0,0,0,0,0
			c0,0,0,0,0,0C18,36.4,18.7,35.6,19.7,35.6 M27.3,23.2C27.3,23.2,27.3,23.2,27.3,23.2c-0.4,0-0.6,0.1-0.6,0.5c0,0,0,0,0,0
			c0,0.4,0,0.9,0,1.3c0,0.5,0,0.9,0,1.4c0,0.4,0,0.8,0,1.2c0,0,0,0,0,0c0,0.5-0.1,1-0.2,1.5c-0.1,0.8-0.8,1.1-1.6,1.2
			c-1.1-0.1-1.8-0.8-1.8-1.9c0-0.5,0-1,0-1.5c0-0.4,0-0.8,0-1.2c0-0.7,0-1.4,0-2.1v0c0-0.1,0-0.1,0-0.2c0-0.1,0-0.3-0.3-0.3
			c0,0,0,0,0,0c-1.2,0.1-2.5,0-3.7,0.2c-1.1,0.1-2.2,0.3-3.2,0.5c0.2,1.1,0.1,2.2,0.1,3.3c0,0,0,0,0,0c0,0.4,0,0.7,0,1.1
			c0,0,0,0,0,0c0,0,0,0,0,0c0,0.6-0.1,1.1-0.2,1.7c-0.5,2.1-2.5,3.8-4.7,3.9c-0.1,0-0.1,0-0.2,0c-0.6,0-1.2,0-1.8,0
			c-0.7,0-1.4,0-2.1,0c-0.9,0-1.7-0.4-2.6-0.7c-1.4,2.5-2.3,5.1-2.5,7.9C2,41.6,2,42.2,2,42.7c0,1.4,0.1,2.8,0.4,4.1
			c0.4,1.6,1,3.2,1.7,4.7c1,1.9,2.2,3.7,2.8,5.8c0.2,0.7,0.5,1.4,0.8,2l8.8-9.2c-0.1-0.4-0.2-0.8-0.3-1.2c-0.1-0.4-0.1-0.8-0.1-1.2
			c0-3.3,2.4-6.2,5.5-6.8c0,0,0,0,0,0c0.7-0.1,1.3-0.2,2-0.2c0.1,0,0.3,0,0.4,0c0.1,0,0.3,0,0.4,0c0.1,0,0.1,0,0.2,0c0,0,0,0,0,0
			c0,0,0,0,0,0c0,0,0,0,0,0c0,0,0,0,0,0c0,0,0,0,0,0h0c0,0,0,0,0.1,0c0,0,0,0,0,0c0,0,0,0,0,0c0,0,0,0,0,0c0,0,0.1,0,0.1,0
			c0.1,0,0.2,0,0.3,0c0.1,0,0.1,0,0.2,0l3-3.1c0-0.1-0.1-0.3-0.1-0.4v0c0-0.9,0.7-1.8,1.6-1.8c0,0,0,0,0.1,0c0,0,0,0,0,0
			c0,0,0,0,0,0c0.2,0,0.3,0,0.4,0.1l4-4.2c-0.3-0.5-0.6-1.2-0.7-1.9c-0.1-0.8-0.2-1.6-0.2-2.3c0-1,0.1-1.9,0.1-2.9
			c0-0.1,0-0.3,0-0.4c-0.2,0-0.4,0-0.6-0.1C31.3,23.3,29.3,23.2,27.3,23.2"/>
		<path style="clip-path:url(#SVGID_2_);fill:#FDECDC;" d="M8,20.6C8,20.6,8,20.6,8,20.6c-1.4,1-2.7,2.2-3.8,3.5
			c-0.8,1-1.7,1.9-2,3.2C2,27.7,2,28.1,2,28.5c0-0.4,0-0.8,0.1-1.2c0.3-1.3,1.2-2.3,2-3.2C5.3,22.8,6.5,21.6,8,20.6
			C8,20.6,8,20.6,8,20.6"/>
		<path style="clip-path:url(#SVGID_2_);fill:#FAC99D;" d="M10.8,19.7C10.8,19.7,10.8,19.7,10.8,19.7c-1,0-2,0.3-2.8,0.9
			c0,0,0,0,0,0c0,0,0,0,0,0c-1.4,1-2.6,2.2-3.8,3.5c-0.8,1-1.7,1.9-2,3.2C2,27.7,2,28.1,2,28.5c0,0.8,0.2,1.6,0.6,2.4
			c0.5,0.9,1.2,1.6,2,2.2c0.8,0.3,1.6,0.7,2.5,0.7c-0.9,0-1.7-0.4-2.5-0.7c0.8,0.3,1.7,0.7,2.6,0.7c0.7,0,1.4,0,2.1,0
			c0.6,0,1.2,0,1.8,0c0.1,0,0.1,0,0.2,0c2.2-0.1,4.2-1.8,4.7-3.9c0.1-0.6,0.2-1.1,0.2-1.7c0,0,0,0,0,0c0-0.3,0-0.7,0-1
			c0-1.1,0.1-2.2-0.1-3.3c0-0.1-0.1-0.2-0.1-0.3c-0.4-1.2-1-2.3-2.1-3.1c0,0-0.1,0-0.1-0.1C12.9,20,11.9,19.7,10.8,19.7
			C10.8,19.7,10.8,19.7,10.8,19.7"/>
		<path style="clip-path:url(#SVGID_2_);fill:#FAC99D;" d="M33.9,28.6c0,0.1,0,0.3,0,0.4C33.9,28.8,33.9,28.7,33.9,28.6 M38.9,19.7
			c-0.5,0-0.9,0.1-1.3,0.2v0c0,0,0,0-0.1,0c-0.9,0.4-1.7,0.8-2.3,1.6c-0.6,0.7-0.9,1.6-1.2,2.4c0,0.1,0,0.3,0,0.4c0,0.1,0,0.2,0,0.4
			c0,1.6-0.2,3.2,0.1,4.8c0,0,0,0,0,0s0,0,0,0c0-0.2-0.1-0.3-0.1-0.5c0,0.2,0,0.3,0.1,0.5c0.1,0.7,0.4,1.3,0.7,1.9l9.1-9.5
			c-0.3-0.3-0.7-0.6-1-0.9c-0.8-0.6-1.6-1.2-2.8-1.4c0,0,0,0-0.1,0C39.6,19.7,39.2,19.7,38.9,19.7"/>
		<path style="clip-path:url(#SVGID_2_);fill:#214B6B;" d="M18,37.4C18,37.4,18,37.4,18,37.4C18,37.4,18,37.4,18,37.4 M18,37.4
			L18,37.4C18,37.4,18,37.4,18,37.4C18,37.4,18,37.4,18,37.4 M19.7,35.6C19.7,35.6,19.7,35.6,19.7,35.6c-0.4,0-0.7,0.1-1,0.3
			c-0.4,0.3-0.7,0.9-0.7,1.4c0,0.6,0.4,1.2,0.9,1.5C18.3,38.6,18,38,18,37.4c0,0.9,0.8,1.7,1.7,1.7c0,0,0,0,0.1,0c0.1,0,0.2,0,0.4,0
			c0.8-0.2,1.4-0.8,1.4-1.7c0-0.3-0.1-0.6-0.2-0.9C21,36,20.3,35.6,19.7,35.6"/>
		<path style="clip-path:url(#SVGID_2_);fill:#FAC89D;" d="M23.8,40.9c-0.7,0-1.3,0-2,0.2c0,0,0,0,0,0c-3.1,0.7-5.6,3.5-5.5,6.8
			c0,0.4,0,0.8,0.1,1.2c0.1,0.4,0.2,0.8,0.3,1.2l9-9.4c-0.1,0-0.1,0-0.2,0c-0.1,0-0.2,0-0.3,0c0,0-0.1,0-0.1,0c0,0,0,0,0,0
			c0,0,0,0,0,0c0,0,0,0,0,0c0,0,0,0-0.1,0h0c0,0,0,0,0,0c0,0,0,0,0,0c0,0,0,0,0,0c0,0,0,0,0,0c0,0,0,0,0,0c-0.1,0-0.1,0-0.2,0
			c-0.1,0-0.3,0-0.4,0C24.1,40.9,23.9,40.9,23.8,40.9"/>
		<path style="clip-path:url(#SVGID_2_);fill:#214B6B;" d="M30.2,35.6c-0.9,0-1.6,0.8-1.6,1.8c0,0,0,0,0,0c0,0.2,0,0.3,0.1,0.4
			l2.1-2.2C30.6,35.6,30.4,35.6,30.2,35.6C30.2,35.6,30.2,35.6,30.2,35.6"/>
	</g>
</g>
</svg>
