<?xml version="1.0" encoding="utf-8"?>
<!-- Generator: Adobe Illustrator 24.3.1, SVG Export Plug-In . SVG Version: 6.00 Build 0)  -->
<svg version="1.1" id="Layer_1" xmlns="http://www.w3.org/2000/svg" xmlns:xlink="http://www.w3.org/1999/xlink" x="0px" y="0px"
	 viewBox="0 0 1000 1000" style="enable-background:new 0 0 1000 1000;" xml:space="preserve">
<style type="text/css">
	.st0{fill:#CE5145;}
	.st1{fill:#0280A7;}
</style>
<path class="st0" d="M100.9,46.4c-3.6-16.8,3.6-25.2,20.4-25.2h20.4c13.2,0,21.6,7.2,25.2,20.4l125,495.3
	c8.4,33.7,15.6,70.9,15.6,70.9h2.4c0,0,7.2-37.3,15.6-70.9L461.6,40.4c3.6-13.2,12-20.4,25.2-20.4h21.6c14.4,0,21.6,7.2,25.2,20.4
	l135.8,496.5c10.8,33.7,16.8,70.9,16.8,70.9h2.4c0,0,6-37.3,14.4-70.9L833.1,41.6c3.6-14.4,12-20.4,25.2-20.4h20.4
	c15.6,0,24,9.6,20.4,25.2L734.5,665.6c-3.6,13.2-12,20.4-26.4,20.4H672c-14.4,0-22.8-7.2-26.4-20.4L522.9,217.2
	c-12-42.1-24-99.8-24-99.8h-2.4c0,0-10.8,56.5-24,99.8L349.8,665.6c-3.6,13.2-12,20.4-25.2,20.4h-37.3c-14.4,0-21.6-7.2-25.2-20.4
	L100.9,46.4z"/>
<path class="st1" d="M890.9,800.1c6.9-8.6,10.4-19,8.6-31.1c-1.7-10.4-6.9-20.8-15.6-27.7c-6.9-5.2-17.3-8.6-25.9-8.6
	c-12.1,0-24.2,5.2-32.9,15.6C750.8,841.6,628,897,500,897c-129.7,0-250.8-55.4-325.2-150.5c-8.6-10.4-20.8-15.6-32.9-15.6
	c-10.4,0-19,3.5-25.9,8.6c-8.6,6.9-13.8,17.3-15.6,27.7c-1.7,10.4,1.7,22.5,8.6,31.1C199,912.5,346.1,980,500,980
	C653.9,980,801,912.5,890.9,800.1"/>
</svg>
