<?xml version="1.0" standalone="no"?>
<!DOCTYPE svg PUBLIC "-//W3C//DTD SVG 20010904//EN"
 "http://www.w3.org/TR/2001/REC-SVG-20010904/DTD/svg10.dtd">
<svg version="1.0" xmlns="http://www.w3.org/2000/svg"
 width="700.000000pt" height="700.000000pt" viewBox="0 0 700.000000 700.000000"
 preserveAspectRatio="xMidYMid meet">
<metadata>
Created by potrace 1.14, written by Peter Selinger 2001-2017
</metadata>
<g transform="translate(0.000000,700.000000) scale(0.100000,-0.100000)"
fill="#000000" stroke="none">
<path d="M3332 6845 c-45 -20 -79 -61 -97 -120 -9 -27 -63 -223 -121 -435 -97
-355 -128 -470 -204 -745 -44 -159 -142 -517 -151 -550 -4 -16 -44 -163 -89
-325 -45 -162 -88 -320 -97 -350 -45 -169 -199 -732 -228 -835 -43 -151 -75
-273 -81 -305 -3 -14 -11 -50 -19 -80 -8 -30 -16 -66 -19 -80 -25 -130 -55
-262 -60 -267 -10 -10 -13 -2 -30 77 -15 73 -54 249 -61 280 -9 40 -249 996
-352 1400 -63 250 -116 462 -118 470 -6 25 -251 992 -342 1350 -46 184 -89
353 -94 375 -15 61 -46 102 -93 124 -35 18 -61 21 -159 21 -137 0 -177 -12
-203 -61 -21 -41 -17 -85 21 -224 9 -33 18 -67 20 -75 2 -8 19 -76 38 -150 20
-74 54 -205 76 -290 22 -85 72 -276 111 -425 256 -982 302 -1158 305 -1175 2
-8 15 -58 28 -110 30 -112 72 -270 122 -465 20 -77 54 -207 76 -290 21 -82 64
-244 93 -360 30 -115 68 -262 85 -325 17 -63 42 -159 56 -212 14 -54 37 -142
51 -195 14 -54 27 -109 30 -122 10 -50 48 -122 73 -140 40 -28 80 -33 257 -33
158 0 165 1 207 26 59 34 71 63 146 341 34 127 67 244 72 260 8 28 48 169 99
360 12 44 33 121 47 170 20 76 54 199 68 255 3 8 52 188 110 400 113 410 187
681 212 770 23 87 161 590 209 764 37 133 135 545 146 611 4 22 20 24 24 3 11
-51 17 -78 30 -137 9 -36 18 -75 20 -86 12 -63 94 -379 164 -635 45 -162 83
-302 85 -310 4 -17 266 -977 296 -1085 11 -38 24 -86 29 -105 17 -61 78 -282
100 -365 34 -127 80 -294 101 -370 11 -38 21 -77 23 -85 39 -159 182 -657 199
-690 17 -34 33 -51 69 -69 45 -22 59 -23 222 -23 165 0 177 1 218 24 26 14 51
39 65 63 17 31 82 255 118 405 2 8 24 94 50 190 26 96 48 182 50 190 3 14 117
442 164 615 10 39 38 142 61 230 23 88 48 183 56 210 20 71 114 426 119 449 2
10 27 104 56 209 28 106 52 199 54 208 2 9 12 47 23 85 11 38 32 116 47 174
15 58 35 134 45 170 16 55 26 95 56 210 9 35 36 138 45 170 5 19 11 43 14 53
2 10 22 86 45 170 22 84 59 222 82 307 22 85 53 200 69 255 41 152 31 213 -43
251 -38 19 -256 19 -303 0 -58 -25 -79 -72 -150 -341 -36 -137 -68 -257 -70
-266 -2 -8 -17 -69 -35 -135 -17 -65 -47 -180 -66 -254 -19 -74 -50 -191 -69
-260 -18 -69 -57 -215 -85 -325 -29 -110 -66 -249 -82 -310 -16 -60 -31 -114
-32 -120 -6 -23 -25 -93 -138 -525 -66 -250 -121 -463 -123 -474 -3 -10 -12
-44 -21 -75 -9 -31 -17 -63 -19 -71 -3 -14 -61 -238 -100 -385 -9 -33 -18 -69
-21 -80 -2 -11 -6 -29 -9 -40 -18 -80 -65 -308 -70 -345 -15 -109 -27 -106
-50 13 -23 123 -35 171 -112 447 -36 129 -71 260 -79 290 -8 30 -21 78 -29
105 -19 63 -237 860 -250 915 -2 8 -16 58 -30 110 -38 135 -58 211 -89 325
-15 55 -39 141 -53 190 -14 50 -26 97 -28 105 -2 8 -34 123 -70 255 -37 132
-74 269 -84 305 -185 683 -238 868 -256 893 -44 65 -63 72 -208 74 -95 1 -141
-2 -165 -12z"/>
<path d="M922 1874 c-123 -32 -203 -125 -218 -256 -14 -123 48 -220 301 -473
540 -541 1246 -876 2065 -980 113 -14 231 -20 435 -20 237 0 375 9 535 35 30
5 71 11 90 14 19 3 69 12 110 21 41 9 86 19 100 21 40 8 238 64 320 91 242 79
556 226 765 357 93 59 329 226 345 245 3 3 34 31 70 61 163 138 397 391 434
470 31 67 28 178 -6 245 -59 112 -137 160 -263 160 -105 0 -161 -28 -242 -122
-80 -93 -265 -278 -343 -344 -291 -245 -679 -448 -1067 -558 -77 -21 -153 -42
-169 -44 -16 -3 -65 -13 -108 -22 -44 -8 -102 -18 -130 -21 -28 -3 -56 -7 -63
-9 -78 -25 -629 -25 -779 0 -16 2 -72 12 -125 20 -355 57 -770 210 -1054 389
-262 166 -485 357 -657 566 -101 123 -146 151 -269 164 -14 2 -49 -3 -77 -10z"/>
</g>
</svg>
